<svg width="179" height="10" viewBox="0 0 179 10" fill="none" xmlns="http://www.w3.org/2000/svg">
<path d="M0.09 3.293V1.421H3.141V8H1.044V3.293H0.09ZM3.84673 6.407C4.65073 5.807 5.28673 5.264 5.75473 4.778C6.22273 4.286 6.45673 3.827 6.45673 3.401C6.45673 3.257 6.42373 3.146 6.35773 3.068C6.29773 2.99 6.21673 2.951 6.11473 2.951C5.99473 2.951 5.89873 3.014 5.82673 3.14C5.76073 3.26 5.73673 3.446 5.75473 3.698H3.81973C3.83773 3.14 3.95773 2.681 4.17973 2.321C4.40773 1.961 4.70173 1.697 5.06173 1.529C5.42173 1.361 5.81773 1.277 6.24973 1.277C7.01773 1.277 7.57873 1.463 7.93273 1.835C8.29273 2.201 8.47273 2.672 8.47273 3.248C8.47273 3.854 8.27773 4.424 7.88773 4.958C7.50373 5.486 7.02073 5.933 6.43873 6.299H8.49973V7.91H3.84673V6.407ZM9.09738 3.482C9.11538 2.768 9.32238 2.222 9.71838 1.844C10.1204 1.466 10.6874 1.277 11.4194 1.277C11.8934 1.277 12.2984 1.358 12.6344 1.52C12.9704 1.682 13.2224 1.901 13.3904 2.177C13.5644 2.453 13.6514 2.765 13.6514 3.113C13.6514 3.533 13.5524 3.863 13.3544 4.103C13.1564 4.337 12.9344 4.496 12.6884 4.58V4.616C13.4084 4.886 13.7684 5.387 13.7684 6.119C13.7684 6.503 13.6784 6.842 13.4984 7.136C13.3184 7.43 13.0604 7.658 12.7244 7.82C12.3944 7.982 12.0014 8.063 11.5454 8.063C10.7654 8.063 10.1534 7.877 9.70938 7.505C9.26538 7.133 9.03738 6.551 9.02538 5.759H10.9694C10.9574 5.975 10.9874 6.14 11.0594 6.254C11.1374 6.362 11.2694 6.416 11.4554 6.416C11.5634 6.416 11.6534 6.377 11.7254 6.299C11.7974 6.215 11.8334 6.107 11.8334 5.975C11.8334 5.807 11.7764 5.681 11.6624 5.597C11.5544 5.507 11.3684 5.462 11.1044 5.462H10.7714V3.851H11.0954C11.5034 3.875 11.7074 3.713 11.7074 3.365C11.7074 3.215 11.6744 3.104 11.6084 3.032C11.5484 2.96 11.4704 2.924 11.3744 2.924C11.1524 2.924 11.0414 3.11 11.0414 3.482H9.09738ZM23.8678 1.628V8H21.8788V4.823L20.8978 8H19.1878L18.2068 4.823V8H16.2088V1.628H18.6568L20.0608 5.453L21.4288 1.628H23.8678ZM24.4993 5.462C24.4993 4.928 24.5893 4.466 24.7693 4.076C24.9553 3.68 25.2073 3.38 25.5253 3.176C25.8433 2.966 26.2003 2.861 26.5963 2.861C26.9263 2.861 27.2113 2.93 27.4513 3.068C27.6913 3.2 27.8743 3.383 28.0003 3.617V2.924H29.9893V8H28.0003V7.307C27.8743 7.541 27.6913 7.727 27.4513 7.865C27.2113 7.997 26.9263 8.063 26.5963 8.063C26.2003 8.063 25.8433 7.961 25.5253 7.757C25.2073 7.547 24.9553 7.247 24.7693 6.857C24.5893 6.461 24.4993 5.996 24.4993 5.462ZM28.0003 5.462C28.0003 5.192 27.9313 4.982 27.7933 4.832C27.6553 4.682 27.4783 4.607 27.2623 4.607C27.0463 4.607 26.8693 4.682 26.7313 4.832C26.5933 4.982 26.5243 5.192 26.5243 5.462C26.5243 5.732 26.5933 5.942 26.7313 6.092C26.8693 6.242 27.0463 6.317 27.2623 6.317C27.4783 6.317 27.6553 6.242 27.7933 6.092C27.9313 5.942 28.0003 5.732 28.0003 5.462ZM31.8945 2.519C31.5465 2.519 31.2675 2.426 31.0575 2.24C30.8475 2.054 30.7425 1.82 30.7425 1.538C30.7425 1.25 30.8475 1.013 31.0575 0.827C31.2675 0.635 31.5465 0.538999 31.8945 0.538999C32.2365 0.538999 32.5125 0.635 32.7225 0.827C32.9325 1.013 33.0375 1.25 33.0375 1.538C33.0375 1.82 32.9325 2.054 32.7225 2.24C32.5125 2.426 32.2365 2.519 31.8945 2.519ZM32.8845 2.924V8H30.8865V2.924H32.8845ZM37.3419 2.888C37.9239 2.888 38.3769 3.083 38.7009 3.473C39.0309 3.863 39.1959 4.391 39.1959 5.057V8H37.2069V5.309C37.2069 5.069 37.1409 4.88 37.0089 4.742C36.8829 4.598 36.7119 4.526 36.4959 4.526C36.2739 4.526 36.0999 4.598 35.9739 4.742C35.8479 4.88 35.7849 5.069 35.7849 5.309V8H33.7869V2.924H35.7849V3.698C35.9409 3.458 36.1479 3.263 36.4059 3.113C36.6699 2.963 36.9819 2.888 37.3419 2.888ZM44.0846 8.063C43.3226 8.063 42.6926 7.886 42.1946 7.532C41.7026 7.172 41.4356 6.647 41.3936 5.957H43.5176C43.5476 6.323 43.7096 6.506 44.0036 6.506C44.1116 6.506 44.2016 6.482 44.2736 6.434C44.3516 6.38 44.3906 6.299 44.3906 6.191C44.3906 6.041 44.3096 5.921 44.1476 5.831C43.9856 5.735 43.7336 5.627 43.3916 5.507C42.9836 5.363 42.6446 5.222 42.3746 5.084C42.1106 4.946 41.8826 4.745 41.6906 4.481C41.4986 4.217 41.4056 3.878 41.4116 3.464C41.4116 3.05 41.5166 2.699 41.7266 2.411C41.9426 2.117 42.2336 1.895 42.5996 1.745C42.9716 1.595 43.3886 1.52 43.8506 1.52C44.6306 1.52 45.2486 1.7 45.7046 2.06C46.1666 2.42 46.4096 2.927 46.4336 3.581H44.2826C44.2766 3.401 44.2316 3.272 44.1476 3.194C44.0636 3.116 43.9616 3.077 43.8416 3.077C43.7576 3.077 43.6886 3.107 43.6346 3.167C43.5806 3.221 43.5536 3.299 43.5536 3.401C43.5536 3.545 43.6316 3.665 43.7876 3.761C43.9496 3.851 44.2046 3.962 44.5526 4.094C44.9546 4.244 45.2846 4.388 45.5426 4.526C45.8066 4.664 46.0346 4.856 46.2266 5.102C46.4186 5.348 46.5146 5.657 46.5146 6.029C46.5146 6.419 46.4186 6.77 46.2266 7.082C46.0346 7.388 45.7556 7.628 45.3896 7.802C45.0236 7.976 44.5886 8.063 44.0846 8.063ZM50.3756 6.299V8H49.6196C48.2276 8 47.5316 7.307 47.5316 5.921V4.589H46.9016V2.924H47.5316V1.7H49.5296V2.924H50.3576V4.589H49.5296V5.957C49.5296 6.077 49.5566 6.164 49.6106 6.218C49.6706 6.272 49.7666 6.299 49.8986 6.299H50.3756ZM53.1345 3.86C53.3385 3.566 53.5875 3.332 53.8815 3.158C54.1755 2.978 54.4815 2.888 54.7995 2.888V5.021H54.2325C53.8545 5.021 53.5755 5.087 53.3955 5.219C53.2215 5.351 53.1345 5.585 53.1345 5.921V8H51.1365V2.924H53.1345V3.86ZM60.2517 5.417C60.2517 5.555 60.2427 5.687 60.2247 5.813H57.0117C57.0417 6.251 57.2247 6.47 57.5607 6.47C57.7767 6.47 57.9327 6.371 58.0287 6.173H60.1437C60.0717 6.533 59.9187 6.857 59.6847 7.145C59.4567 7.427 59.1657 7.652 58.8117 7.82C58.4637 7.982 58.0797 8.063 57.6597 8.063C57.1557 8.063 56.7057 7.958 56.3097 7.748C55.9197 7.538 55.6137 7.238 55.3917 6.848C55.1757 6.452 55.0677 5.99 55.0677 5.462C55.0677 4.934 55.1757 4.475 55.3917 4.085C55.6137 3.689 55.9197 3.386 56.3097 3.176C56.7057 2.966 57.1557 2.861 57.6597 2.861C58.1637 2.861 58.6107 2.966 59.0007 3.176C59.3967 3.38 59.7027 3.674 59.9187 4.058C60.1407 4.442 60.2517 4.895 60.2517 5.417ZM58.2267 4.94C58.2267 4.772 58.1727 4.646 58.0647 4.562C57.9567 4.472 57.8217 4.427 57.6597 4.427C57.3057 4.427 57.0987 4.598 57.0387 4.94H58.2267ZM65.7976 5.417C65.7976 5.555 65.7886 5.687 65.7706 5.813H62.5576C62.5876 6.251 62.7706 6.47 63.1066 6.47C63.3226 6.47 63.4786 6.371 63.5746 6.173H65.6896C65.6176 6.533 65.4646 6.857 65.2306 7.145C65.0026 7.427 64.7116 7.652 64.3576 7.82C64.0096 7.982 63.6256 8.063 63.2056 8.063C62.7016 8.063 62.2516 7.958 61.8556 7.748C61.4656 7.538 61.1596 7.238 60.9376 6.848C60.7216 6.452 60.6136 5.99 60.6136 5.462C60.6136 4.934 60.7216 4.475 60.9376 4.085C61.1596 3.689 61.4656 3.386 61.8556 3.176C62.2516 2.966 62.7016 2.861 63.2056 2.861C63.7096 2.861 64.1566 2.966 64.5466 3.176C64.9426 3.38 65.2486 3.674 65.4646 4.058C65.6866 4.442 65.7976 4.895 65.7976 5.417ZM63.7726 4.94C63.7726 4.772 63.7186 4.646 63.6106 4.562C63.5026 4.472 63.3676 4.427 63.2056 4.427C62.8516 4.427 62.6446 4.598 62.5846 4.94H63.7726ZM69.5885 6.299V8H68.8325C67.4405 8 66.7445 7.307 66.7445 5.921V4.589H66.1145V2.924H66.7445V1.7H68.7425V2.924H69.5705V4.589H68.7425V5.957C68.7425 6.077 68.7695 6.164 68.8235 6.218C68.8835 6.272 68.9795 6.299 69.1115 6.299H69.5885ZM72.4914 6.407L71.5644 9.08H70.3044L70.7274 6.407H72.4914ZM77.6099 1.628C78.2759 1.628 78.8579 1.763 79.3559 2.033C79.8599 2.303 80.2469 2.678 80.5169 3.158C80.7869 3.638 80.9219 4.184 80.9219 4.796C80.9219 5.402 80.7869 5.948 80.5169 6.434C80.2469 6.92 79.8599 7.304 79.3559 7.586C78.8579 7.862 78.2759 8 77.6099 8H74.9549V1.628H77.6099ZM77.4299 6.218C77.8799 6.218 78.2369 6.095 78.5009 5.849C78.7649 5.603 78.8969 5.252 78.8969 4.796C78.8969 4.34 78.7649 3.989 78.5009 3.743C78.2369 3.497 77.8799 3.374 77.4299 3.374H76.9529V6.218H77.4299ZM84.0554 8.063C83.5454 8.063 83.0864 7.958 82.6784 7.748C82.2704 7.538 81.9494 7.238 81.7154 6.848C81.4874 6.452 81.3734 5.99 81.3734 5.462C81.3734 4.934 81.4874 4.475 81.7154 4.085C81.9494 3.689 82.2704 3.386 82.6784 3.176C83.0864 2.966 83.5454 2.861 84.0554 2.861C84.5654 2.861 85.0244 2.966 85.4324 3.176C85.8404 3.386 86.1584 3.689 86.3864 4.085C86.6204 4.475 86.7374 4.934 86.7374 5.462C86.7374 5.99 86.6204 6.452 86.3864 6.848C86.1584 7.238 85.8404 7.538 85.4324 7.748C85.0244 7.958 84.5654 8.063 84.0554 8.063ZM84.0554 6.335C84.2414 6.335 84.3974 6.263 84.5234 6.119C84.6494 5.969 84.7124 5.75 84.7124 5.462C84.7124 5.174 84.6494 4.958 84.5234 4.814C84.3974 4.664 84.2414 4.589 84.0554 4.589C83.8694 4.589 83.7134 4.664 83.5874 4.814C83.4614 4.958 83.3984 5.174 83.3984 5.462C83.3984 5.75 83.4584 5.969 83.5784 6.119C83.7044 6.263 83.8634 6.335 84.0554 6.335ZM89.939 6.101L90.749 2.924H92.873L91.181 8H88.688L86.996 2.924H89.12L89.939 6.101ZM98.3171 5.417C98.3171 5.555 98.3081 5.687 98.2901 5.813H95.0771C95.1071 6.251 95.2901 6.47 95.6261 6.47C95.8421 6.47 95.9981 6.371 96.0941 6.173H98.2091C98.1371 6.533 97.9841 6.857 97.7501 7.145C97.5221 7.427 97.2311 7.652 96.8771 7.82C96.5291 7.982 96.1451 8.063 95.7251 8.063C95.2211 8.063 94.7711 7.958 94.3751 7.748C93.9851 7.538 93.6791 7.238 93.4571 6.848C93.2411 6.452 93.1331 5.99 93.1331 5.462C93.1331 4.934 93.2411 4.475 93.4571 4.085C93.6791 3.689 93.9851 3.386 94.3751 3.176C94.7711 2.966 95.2211 2.861 95.7251 2.861C96.2291 2.861 96.6761 2.966 97.0661 3.176C97.4621 3.38 97.7681 3.674 97.9841 4.058C98.2061 4.442 98.3171 4.895 98.3171 5.417ZM96.2921 4.94C96.2921 4.772 96.2381 4.646 96.1301 4.562C96.0221 4.472 95.8871 4.427 95.7251 4.427C95.3711 4.427 95.1641 4.598 95.1041 4.94H96.2921ZM100.947 3.86C101.151 3.566 101.4 3.332 101.694 3.158C101.988 2.978 102.294 2.888 102.612 2.888V5.021H102.045C101.667 5.021 101.388 5.087 101.208 5.219C101.034 5.351 100.947 5.585 100.947 5.921V8H98.949V2.924H100.947V3.86ZM105.292 6.407L104.365 9.08H103.105L103.528 6.407H105.292ZM113.867 8H111.869L109.754 4.796V8H107.756V1.628H109.754L111.869 4.886V1.628H113.867V8ZM120.664 1.628V8H118.666V5.516H116.767V8H114.769V1.628H116.767V3.923H118.666V1.628H120.664ZM122.931 4.616C122.931 3.578 123.15 2.762 123.588 2.168C124.032 1.574 124.713 1.277 125.631 1.277C126.543 1.277 127.221 1.577 127.665 2.177C128.109 2.771 128.331 3.584 128.331 4.616C128.331 5.654 128.109 6.473 127.665 7.073C127.221 7.667 126.543 7.964 125.631 7.964C124.713 7.964 124.032 7.667 123.588 7.073C123.15 6.473 122.931 5.654 122.931 4.616ZM126.36 4.616C126.36 4.136 126.312 3.776 126.216 3.536C126.12 3.29 125.925 3.167 125.631 3.167C125.331 3.167 125.133 3.29 125.037 3.536C124.941 3.776 124.893 4.136 124.893 4.616C124.893 5.102 124.941 5.468 125.037 5.714C125.133 5.954 125.331 6.074 125.631 6.074C125.925 6.074 126.12 5.954 126.216 5.714C126.312 5.468 126.36 5.102 126.36 4.616ZM129.007 3.482C129.025 2.768 129.232 2.222 129.628 1.844C130.03 1.466 130.597 1.277 131.329 1.277C131.803 1.277 132.208 1.358 132.544 1.52C132.88 1.682 133.132 1.901 133.3 2.177C133.474 2.453 133.561 2.765 133.561 3.113C133.561 3.533 133.462 3.863 133.264 4.103C133.066 4.337 132.844 4.496 132.598 4.58V4.616C133.318 4.886 133.678 5.387 133.678 6.119C133.678 6.503 133.588 6.842 133.408 7.136C133.228 7.43 132.97 7.658 132.634 7.82C132.304 7.982 131.911 8.063 131.455 8.063C130.675 8.063 130.063 7.877 129.619 7.505C129.175 7.133 128.947 6.551 128.935 5.759H130.879C130.867 5.975 130.897 6.14 130.969 6.254C131.047 6.362 131.179 6.416 131.365 6.416C131.473 6.416 131.563 6.377 131.635 6.299C131.707 6.215 131.743 6.107 131.743 5.975C131.743 5.807 131.686 5.681 131.572 5.597C131.464 5.507 131.278 5.462 131.014 5.462H130.681V3.851H131.005C131.413 3.875 131.617 3.713 131.617 3.365C131.617 3.215 131.584 3.104 131.518 3.032C131.458 2.96 131.38 2.924 131.284 2.924C131.062 2.924 130.951 3.11 130.951 3.482H129.007ZM135.48 4.382C135.24 4.244 135.051 4.064 134.913 3.842C134.781 3.614 134.715 3.344 134.715 3.032C134.715 2.708 134.802 2.414 134.976 2.15C135.15 1.886 135.414 1.676 135.768 1.52C136.128 1.358 136.569 1.277 137.091 1.277C137.613 1.277 138.051 1.358 138.405 1.52C138.765 1.676 139.032 1.886 139.206 2.15C139.38 2.414 139.467 2.708 139.467 3.032C139.467 3.344 139.398 3.614 139.26 3.842C139.128 4.064 138.942 4.244 138.702 4.382C139.308 4.736 139.611 5.267 139.611 5.975C139.611 6.431 139.497 6.818 139.269 7.136C139.041 7.454 138.735 7.694 138.351 7.856C137.967 8.018 137.547 8.099 137.091 8.099C136.635 8.099 136.215 8.018 135.831 7.856C135.447 7.694 135.141 7.454 134.913 7.136C134.685 6.818 134.571 6.431 134.571 5.975C134.571 5.267 134.874 4.736 135.48 4.382ZM137.505 3.365C137.505 3.197 137.466 3.065 137.388 2.969C137.31 2.867 137.211 2.816 137.091 2.816C136.971 2.816 136.872 2.867 136.794 2.969C136.716 3.065 136.677 3.197 136.677 3.365C136.677 3.539 136.716 3.671 136.794 3.761C136.872 3.851 136.971 3.896 137.091 3.896C137.211 3.896 137.31 3.851 137.388 3.761C137.466 3.671 137.505 3.539 137.505 3.365ZM137.091 5.237C136.911 5.237 136.767 5.297 136.659 5.417C136.557 5.531 136.506 5.678 136.506 5.858C136.506 6.038 136.557 6.185 136.659 6.299C136.761 6.413 136.905 6.47 137.091 6.47C137.277 6.47 137.421 6.413 137.523 6.299C137.625 6.185 137.676 6.038 137.676 5.858C137.676 5.678 137.622 5.531 137.514 5.417C137.412 5.297 137.271 5.237 137.091 5.237ZM140.306 6.407C141.11 5.807 141.746 5.264 142.214 4.778C142.682 4.286 142.916 3.827 142.916 3.401C142.916 3.257 142.883 3.146 142.817 3.068C142.757 2.99 142.676 2.951 142.574 2.951C142.454 2.951 142.358 3.014 142.286 3.14C142.22 3.26 142.196 3.446 142.214 3.698H140.279C140.297 3.14 140.417 2.681 140.639 2.321C140.867 1.961 141.161 1.697 141.521 1.529C141.881 1.361 142.277 1.277 142.709 1.277C143.477 1.277 144.038 1.463 144.392 1.835C144.752 2.201 144.932 2.672 144.932 3.248C144.932 3.854 144.737 4.424 144.347 4.958C143.963 5.486 143.48 5.933 142.898 6.299H144.959V7.91H140.306V6.407ZM145.439 4.616C145.439 3.578 145.658 2.762 146.096 2.168C146.54 1.574 147.221 1.277 148.139 1.277C149.051 1.277 149.729 1.577 150.173 2.177C150.617 2.771 150.839 3.584 150.839 4.616C150.839 5.654 150.617 6.473 150.173 7.073C149.729 7.667 149.051 7.964 148.139 7.964C147.221 7.964 146.54 7.667 146.096 7.073C145.658 6.473 145.439 5.654 145.439 4.616ZM148.868 4.616C148.868 4.136 148.82 3.776 148.724 3.536C148.628 3.29 148.433 3.167 148.139 3.167C147.839 3.167 147.641 3.29 147.545 3.536C147.449 3.776 147.401 4.136 147.401 4.616C147.401 5.102 147.449 5.468 147.545 5.714C147.641 5.954 147.839 6.074 148.139 6.074C148.433 6.074 148.628 5.954 148.724 5.714C148.82 5.468 148.868 5.102 148.868 4.616ZM155.484 4.103V5.75H151.29V4.103H155.484ZM156.764 7.01V5.345L159.446 1.52H161.597V5.282H162.245V7.01H161.597V8H159.581V7.01H156.764ZM159.743 3.797L158.771 5.282H159.743V3.797ZM165.918 3.419C165.882 3.239 165.828 3.107 165.756 3.023C165.69 2.939 165.585 2.897 165.441 2.897C165.213 2.897 165.06 3.014 164.982 3.248C164.91 3.476 164.874 3.833 164.874 4.319C164.982 4.151 165.138 4.019 165.342 3.923C165.546 3.827 165.777 3.779 166.035 3.779C166.611 3.779 167.07 3.956 167.412 4.31C167.76 4.664 167.934 5.177 167.934 5.849C167.934 6.299 167.838 6.692 167.646 7.028C167.46 7.358 167.193 7.613 166.845 7.793C166.497 7.973 166.086 8.063 165.612 8.063C164.67 8.063 164.016 7.775 163.65 7.199C163.284 6.617 163.101 5.804 163.101 4.76C163.101 3.944 163.185 3.284 163.353 2.78C163.521 2.276 163.785 1.904 164.145 1.664C164.511 1.424 164.985 1.304 165.567 1.304C166.281 1.304 166.818 1.508 167.178 1.916C167.544 2.324 167.745 2.825 167.781 3.419H165.918ZM165.54 5.309C165.378 5.309 165.249 5.354 165.153 5.444C165.057 5.534 165.009 5.66 165.009 5.822C165.009 6.002 165.054 6.137 165.144 6.227C165.24 6.311 165.372 6.353 165.54 6.353C165.708 6.353 165.837 6.311 165.927 6.227C166.023 6.137 166.071 6.002 166.071 5.822C166.071 5.66 166.023 5.534 165.927 5.444C165.831 5.354 165.702 5.309 165.54 5.309ZM171.613 3.419C171.577 3.239 171.523 3.107 171.451 3.023C171.385 2.939 171.28 2.897 171.136 2.897C170.908 2.897 170.755 3.014 170.677 3.248C170.605 3.476 170.569 3.833 170.569 4.319C170.677 4.151 170.833 4.019 171.037 3.923C171.241 3.827 171.472 3.779 171.73 3.779C172.306 3.779 172.765 3.956 173.107 4.31C173.455 4.664 173.629 5.177 173.629 5.849C173.629 6.299 173.533 6.692 173.341 7.028C173.155 7.358 172.888 7.613 172.54 7.793C172.192 7.973 171.781 8.063 171.307 8.063C170.365 8.063 169.711 7.775 169.345 7.199C168.979 6.617 168.796 5.804 168.796 4.76C168.796 3.944 168.88 3.284 169.048 2.78C169.216 2.276 169.48 1.904 169.84 1.664C170.206 1.424 170.68 1.304 171.262 1.304C171.976 1.304 172.513 1.508 172.873 1.916C173.239 2.324 173.44 2.825 173.476 3.419H171.613ZM171.235 5.309C171.073 5.309 170.944 5.354 170.848 5.444C170.752 5.534 170.704 5.66 170.704 5.822C170.704 6.002 170.749 6.137 170.839 6.227C170.935 6.311 171.067 6.353 171.235 6.353C171.403 6.353 171.532 6.311 171.622 6.227C171.718 6.137 171.766 6.002 171.766 5.822C171.766 5.66 171.718 5.534 171.622 5.444C171.526 5.354 171.397 5.309 171.235 5.309ZM178.541 2.888L176.489 8H174.437L176.507 3.131H174.185V1.421H178.541V2.888Z" fill="#090E24"/>
</svg>
