<svg width="205" height="152" viewBox="0 0 205 152" fill="none" xmlns="http://www.w3.org/2000/svg">
<g filter="url(#filter0_d_44_40)">
<rect x="48" y="38" width="109" height="56" rx="16" fill="#090E24"/>
</g>
<path d="M103.05 71V61.2H107.012C108.179 61.2 109.065 61.4893 109.672 62.068C110.288 62.6467 110.596 63.4027 110.596 64.336C110.596 65.288 110.283 66.0533 109.658 66.632C109.042 67.2107 108.155 67.5 106.998 67.5H104.968V71H103.05ZM104.968 65.918H106.802C107.409 65.918 107.866 65.778 108.174 65.498C108.491 65.2087 108.65 64.826 108.65 64.35C108.65 63.8833 108.491 63.5053 108.174 63.216C107.857 62.9267 107.399 62.782 106.802 62.782H104.968V65.918ZM113.658 67.094V71H111.866V63.748H113.616V64.854C113.69 64.7327 113.774 64.6113 113.868 64.49C113.961 64.3687 114.068 64.2613 114.19 64.168C114.404 64 114.624 63.8787 114.848 63.804C115.072 63.7293 115.342 63.692 115.66 63.692C115.753 63.692 115.842 63.6967 115.926 63.706C116.019 63.7153 116.098 63.7247 116.164 63.734V65.428C115.986 65.4187 115.846 65.414 115.744 65.414C115.641 65.4047 115.543 65.4 115.45 65.4C115.254 65.4 115.048 65.4233 114.834 65.47C114.628 65.5073 114.437 65.5913 114.26 65.722C114.082 65.8433 113.938 66.016 113.826 66.24C113.714 66.4547 113.658 66.7393 113.658 67.094ZM117.238 62.6V60.92H119.058V62.6H117.238ZM117.252 71V63.748H119.044V71H117.252ZM122.722 67.066V71H120.93V63.748H122.694V64.616C122.928 64.2893 123.231 64.0373 123.604 63.86C123.987 63.6733 124.407 63.58 124.864 63.58C125.658 63.58 126.292 63.8273 126.768 64.322C127.254 64.8167 127.496 65.5353 127.496 66.478V71H125.704V66.744C125.704 66.2493 125.578 65.8573 125.326 65.568C125.074 65.2693 124.72 65.12 124.262 65.12C123.852 65.12 123.492 65.2833 123.184 65.61C122.876 65.9273 122.722 66.4127 122.722 67.066ZM131.734 71.014C131.118 71.014 130.628 70.888 130.264 70.636C129.9 70.3747 129.718 69.8473 129.718 69.054V65.12H128.5V63.748H129.718V61.984H131.496V63.748H133.176V65.12H131.496V68.704C131.496 69.0867 131.556 69.334 131.678 69.446C131.808 69.5487 132.018 69.6 132.308 69.6H133.176V70.986C132.914 70.9953 132.686 71 132.49 71C132.294 71.0093 132.042 71.014 131.734 71.014Z" fill="white"/>
<path d="M86.75 61H77.25V59C77.25 57 78 56 80.25 56H83.75C86 56 86.75 57 86.75 59V61Z" stroke="white" stroke-width="1.5" stroke-miterlimit="10" stroke-linecap="round" stroke-linejoin="round"/>
<path d="M78 69V73C78 75 79 76 81 76H83C85 76 86 75 86 73V69H78Z" stroke="white" stroke-width="1.5" stroke-miterlimit="10" stroke-linecap="round" stroke-linejoin="round"/>
<path d="M73 64V69C73 71 74 72 76 72H78V69H86V72H88C90 72 91 71 91 69V64C91 62 90 61 88 61H76C74 61 73 62 73 64Z" stroke="white" stroke-width="1.5" stroke-miterlimit="10" stroke-linecap="round" stroke-linejoin="round"/>
<path d="M77 69H78.21H87" stroke="white" stroke-width="1.5" stroke-miterlimit="10" stroke-linecap="round" stroke-linejoin="round"/>
<path d="M87 65H84" stroke="white" stroke-width="1.5" stroke-miterlimit="10" stroke-linecap="round" stroke-linejoin="round"/>
<defs>
<filter id="filter0_d_44_40" x="0" y="0" width="205" height="152" filterUnits="userSpaceOnUse" color-interpolation-filters="sRGB">
<feFlood flood-opacity="0" result="BackgroundImageFix"/>
<feColorMatrix in="SourceAlpha" type="matrix" values="0 0 0 0 0 0 0 0 0 0 0 0 0 0 0 0 0 0 127 0" result="hardAlpha"/>
<feOffset dy="10"/>
<feGaussianBlur stdDeviation="24"/>
<feComposite in2="hardAlpha" operator="out"/>
<feColorMatrix type="matrix" values="0 0 0 0 0 0 0 0 0 0 0 0 0 0 0 0 0 0 0.06 0"/>
<feBlend mode="normal" in2="BackgroundImageFix" result="effect1_dropShadow_44_40"/>
<feBlend mode="normal" in="SourceGraphic" in2="effect1_dropShadow_44_40" result="shape"/>
</filter>
</defs>
</svg>
