<svg width="562" height="142" viewBox="0 0 562 142" fill="none" xmlns="http://www.w3.org/2000/svg">
<rect width="562" height="141.037" rx="16" fill="#F7F9FC"/>
<path d="M0 16C0 7.16344 7.16344 0 16 0H546C554.837 0 562 7.16345 562 16V25.1852H0V16Z" fill="#E8EEFB"/>
<rect x="13.2354" y="35.7593" width="535.527" height="94.7036" rx="15.5" fill="white" stroke="#E3E7F1"/>
<mask id="mask0_38_87" style="mask-type:alpha" maskUnits="userSpaceOnUse" x="12" y="35" width="538" height="96">
<rect x="13.2363" y="35.7593" width="535.527" height="94.7036" rx="15.5" fill="white" stroke="#E3E7F1"/>
</mask>
<g mask="url(#mask0_38_87)">
<g style="mix-blend-mode:luminosity" opacity="0.8" filter="url(#filter0_f_38_87)">
<path d="M110.073 56.5624C110.073 57.1277 109.939 57.661 109.673 58.1624C109.406 58.6637 108.979 59.0744 108.393 59.3944C107.806 59.7037 107.054 59.8584 106.137 59.8584H104.121V64.3704H102.297V53.2504H106.137C106.99 53.2504 107.71 53.3997 108.297 53.6984C108.894 53.9864 109.337 54.381 109.625 54.8824C109.923 55.3837 110.073 55.9437 110.073 56.5624ZM106.137 58.3704C106.83 58.3704 107.347 58.2157 107.689 57.9064C108.03 57.5864 108.201 57.1384 108.201 56.5624C108.201 55.3464 107.513 54.7384 106.137 54.7384H104.121V58.3704H106.137ZM113.636 52.5304V64.3704H111.812V52.5304H113.636ZM124.015 55.5544V64.3704H122.191V63.3304C121.903 63.693 121.524 63.981 121.055 64.1944C120.596 64.397 120.106 64.4984 119.583 64.4984C118.89 64.4984 118.266 64.3544 117.711 64.0664C117.167 63.7784 116.735 63.3517 116.415 62.7864C116.106 62.221 115.951 61.5384 115.951 60.7384V55.5544H117.759V60.4664C117.759 61.2557 117.956 61.8637 118.351 62.2904C118.746 62.7064 119.284 62.9144 119.967 62.9144C120.65 62.9144 121.188 62.7064 121.583 62.2904C121.988 61.8637 122.191 61.2557 122.191 60.4664V55.5544H124.015ZM130.87 55.4104C131.563 55.4104 132.182 55.5544 132.726 55.8424C133.28 56.1304 133.712 56.557 134.022 57.1224C134.331 57.6877 134.486 58.3704 134.486 59.1704V64.3704H132.678V59.4424C132.678 58.653 132.48 58.0504 132.086 57.6344C131.691 57.2077 131.152 56.9944 130.47 56.9944C129.787 56.9944 129.243 57.2077 128.838 57.6344C128.443 58.0504 128.246 58.653 128.246 59.4424V64.3704H126.422V55.5544H128.246V56.5624C128.544 56.1997 128.923 55.917 129.382 55.7144C129.851 55.5117 130.347 55.4104 130.87 55.4104ZM140.3 59.9704L144.364 64.3704H141.9L138.636 60.5784V64.3704H136.812V52.5304H138.636V59.4104L141.836 55.5544H144.364L140.3 59.9704ZM158.708 53.2504V64.3704H156.884V59.5064H151.652V64.3704H149.828V53.2504H151.652V58.0184H156.884V53.2504H158.708ZM164.933 64.5144C164.101 64.5144 163.349 64.3277 162.677 63.9544C162.005 63.5704 161.477 63.037 161.093 62.3544C160.709 61.661 160.517 60.861 160.517 59.9544C160.517 59.0584 160.715 58.2637 161.109 57.5704C161.504 56.877 162.043 56.3437 162.725 55.9704C163.408 55.597 164.171 55.4104 165.013 55.4104C165.856 55.4104 166.619 55.597 167.301 55.9704C167.984 56.3437 168.523 56.877 168.917 57.5704C169.312 58.2637 169.509 59.0584 169.509 59.9544C169.509 60.8504 169.307 61.645 168.901 62.3384C168.496 63.0317 167.941 63.5704 167.237 63.9544C166.544 64.3277 165.776 64.5144 164.933 64.5144ZM164.933 62.9304C165.403 62.9304 165.84 62.8184 166.245 62.5944C166.661 62.3704 166.997 62.0344 167.253 61.5864C167.509 61.1384 167.637 60.5944 167.637 59.9544C167.637 59.3144 167.515 58.7757 167.269 58.3384C167.024 57.8904 166.699 57.5544 166.293 57.3304C165.888 57.1064 165.451 56.9944 164.981 56.9944C164.512 56.9944 164.075 57.1064 163.669 57.3304C163.275 57.5544 162.96 57.8904 162.725 58.3384C162.491 58.7757 162.373 59.3144 162.373 59.9544C162.373 60.9037 162.613 61.6397 163.093 62.1624C163.584 62.6744 164.197 62.9304 164.933 62.9304ZM181.984 55.4104C182.678 55.4104 183.296 55.5544 183.84 55.8424C184.395 56.1304 184.827 56.557 185.136 57.1224C185.456 57.6877 185.616 58.3704 185.616 59.1704V64.3704H183.808V59.4424C183.808 58.653 183.611 58.0504 183.216 57.6344C182.822 57.2077 182.283 56.9944 181.6 56.9944C180.918 56.9944 180.374 57.2077 179.968 57.6344C179.574 58.0504 179.376 58.653 179.376 59.4424V64.3704H177.568V59.4424C177.568 58.653 177.371 58.0504 176.976 57.6344C176.582 57.2077 176.043 56.9944 175.36 56.9944C174.678 56.9944 174.134 57.2077 173.728 57.6344C173.334 58.0504 173.136 58.653 173.136 59.4424V64.3704H171.312V55.5544H173.136V56.5624C173.435 56.1997 173.814 55.917 174.272 55.7144C174.731 55.5117 175.222 55.4104 175.744 55.4104C176.448 55.4104 177.078 55.5597 177.632 55.8584C178.187 56.157 178.614 56.589 178.912 57.1544C179.179 56.621 179.595 56.1997 180.16 55.8904C180.726 55.5704 181.334 55.4104 181.984 55.4104ZM196.017 59.7464C196.017 60.077 195.996 60.3757 195.953 60.6424H189.217C189.271 61.3464 189.532 61.9117 190.001 62.3384C190.471 62.765 191.047 62.9784 191.729 62.9784C192.711 62.9784 193.404 62.5677 193.809 61.7464H195.777C195.511 62.557 195.025 63.2237 194.321 63.7464C193.628 64.2584 192.764 64.5144 191.729 64.5144C190.887 64.5144 190.129 64.3277 189.457 63.9544C188.796 63.5704 188.273 63.037 187.889 62.3544C187.516 61.661 187.329 60.861 187.329 59.9544C187.329 59.0477 187.511 58.253 187.873 57.5704C188.247 56.877 188.764 56.3437 189.425 55.9704C190.097 55.597 190.865 55.4104 191.729 55.4104C192.561 55.4104 193.303 55.5917 193.953 55.9544C194.604 56.317 195.111 56.829 195.473 57.4904C195.836 58.141 196.017 58.893 196.017 59.7464ZM194.113 59.1704C194.103 58.4984 193.863 57.9597 193.393 57.5544C192.924 57.149 192.343 56.9464 191.649 56.9464C191.02 56.9464 190.481 57.149 190.033 57.5544C189.585 57.949 189.319 58.4877 189.233 59.1704H194.113ZM111.881 69.2504L107.705 80.3704H105.593L101.401 69.2504H103.353L106.649 78.4984L109.961 69.2504H111.881ZM112.798 75.9224C112.798 75.037 112.979 74.253 113.342 73.5704C113.715 72.8877 114.217 72.3597 114.846 71.9864C115.486 71.6024 116.19 71.4104 116.958 71.4104C117.651 71.4104 118.254 71.549 118.766 71.8264C119.289 72.093 119.705 72.429 120.014 72.8344V71.5544H121.854V80.3704H120.014V79.0584C119.705 79.4744 119.283 79.821 118.75 80.0984C118.217 80.3757 117.609 80.5144 116.926 80.5144C116.169 80.5144 115.475 80.3224 114.846 79.9384C114.217 79.5437 113.715 78.9997 113.342 78.3064C112.979 77.6024 112.798 76.8077 112.798 75.9224ZM120.014 75.9544C120.014 75.3464 119.886 74.8184 119.63 74.3704C119.385 73.9224 119.059 73.581 118.654 73.3464C118.249 73.1117 117.811 72.9944 117.342 72.9944C116.873 72.9944 116.435 73.1117 116.03 73.3464C115.625 73.5704 115.294 73.9064 115.038 74.3544C114.793 74.7917 114.67 75.3144 114.67 75.9224C114.67 76.5304 114.793 77.0637 115.038 77.5224C115.294 77.981 115.625 78.333 116.03 78.5784C116.446 78.813 116.883 78.9304 117.342 78.9304C117.811 78.9304 118.249 78.813 118.654 78.5784C119.059 78.3437 119.385 78.0024 119.63 77.5544C119.886 77.0957 120.014 76.5624 120.014 75.9544ZM126.074 68.5304V80.3704H124.25V68.5304H126.074ZM136.453 71.5544V80.3704H134.629V79.3304C134.341 79.693 133.962 79.981 133.493 80.1944C133.034 80.397 132.543 80.4984 132.021 80.4984C131.327 80.4984 130.703 80.3544 130.149 80.0664C129.605 79.7784 129.173 79.3517 128.853 78.7864C128.543 78.221 128.389 77.5384 128.389 76.7384V71.5544H130.197V76.4664C130.197 77.2557 130.394 77.8637 130.789 78.2904C131.183 78.7064 131.722 78.9144 132.405 78.9144C133.087 78.9144 133.626 78.7064 134.021 78.2904C134.426 77.8637 134.629 77.2557 134.629 76.4664V71.5544H136.453ZM146.939 75.7464C146.939 76.077 146.918 76.3757 146.875 76.6424H140.139C140.193 77.3464 140.454 77.9117 140.923 78.3384C141.393 78.765 141.969 78.9784 142.651 78.9784C143.633 78.9784 144.326 78.5677 144.731 77.7464H146.699C146.433 78.557 145.947 79.2237 145.243 79.7464C144.55 80.2584 143.686 80.5144 142.651 80.5144C141.809 80.5144 141.051 80.3277 140.379 79.9544C139.718 79.5704 139.195 79.037 138.811 78.3544C138.438 77.661 138.251 76.861 138.251 75.9544C138.251 75.0477 138.433 74.253 138.795 73.5704C139.169 72.877 139.686 72.3437 140.347 71.9704C141.019 71.597 141.787 71.4104 142.651 71.4104C143.483 71.4104 144.225 71.5917 144.875 71.9544C145.526 72.317 146.033 72.829 146.395 73.4904C146.758 74.141 146.939 74.893 146.939 75.7464ZM145.035 75.1704C145.025 74.4984 144.785 73.9597 144.315 73.5544C143.846 73.149 143.265 72.9464 142.571 72.9464C141.942 72.9464 141.403 73.149 140.955 73.5544C140.507 73.949 140.241 74.4877 140.155 75.1704H145.035ZM147.918 69.1064H151.838V70.1944H150.574L150.59 74.7384H149.15L149.182 70.1944H147.918V69.1064ZM159.534 69.1064V74.7384H158.222L158.19 70.9304L156.606 74.7384H155.63L154.062 70.8504V74.7384H152.766V69.1064H154.622L156.158 73.0584L157.774 69.1064H159.534Z" fill="#090E24"/>
<path d="M110.336 90.8308C110.336 92.1108 109.984 93.2628 109.28 94.2868C108.597 95.3108 107.595 96.1321 106.272 96.7508C104.949 97.3695 103.36 97.7001 101.504 97.7428V100.303H99.5201V97.6788C97.0455 97.4441 95.0401 96.6975 93.5041 95.4388C91.9681 94.1801 91.1255 92.4521 90.9761 90.2548H98.5281C98.5921 91.1295 98.9228 91.7268 99.5201 92.0468V88.9108C97.6641 88.3988 96.1921 87.9295 95.1041 87.5028C94.0375 87.0761 93.0668 86.3721 92.1921 85.3908C91.3388 84.4095 90.9121 83.0761 90.9121 81.3908C90.9121 80.0041 91.2961 78.8095 92.0641 77.8068C92.8321 76.7828 93.8668 75.9935 95.1681 75.4388C96.4695 74.8841 97.9201 74.5748 99.5201 74.5108V71.9188H101.504V74.5108C104.043 74.6815 106.048 75.3961 107.52 76.6548C108.992 77.8921 109.803 79.6095 109.952 81.8068H102.304C102.219 80.9961 101.952 80.4521 101.504 80.1748V83.2788C102.251 83.4921 102.603 83.5988 102.56 83.5988C104.16 84.0895 105.472 84.5801 106.496 85.0708C107.541 85.5401 108.437 86.2441 109.184 87.1828C109.952 88.1215 110.336 89.3375 110.336 90.8308ZM98.5281 81.0708C98.5281 81.6255 98.8588 82.0948 99.5201 82.4788V79.9188C98.8588 80.0468 98.5281 80.4308 98.5281 81.0708ZM101.504 92.3348C102.336 92.1641 102.752 91.7161 102.752 90.9908C102.752 90.4361 102.336 89.9668 101.504 89.5828V92.3348ZM119.361 90.2228C119.468 90.8415 119.66 91.3108 119.937 91.6308C120.236 91.9295 120.641 92.0788 121.153 92.0788C121.943 92.0788 122.455 91.6841 122.689 90.8948C122.945 90.0841 123.073 88.7935 123.073 87.0228C122.689 87.6201 122.135 88.0895 121.409 88.4308C120.684 88.7721 119.863 88.9428 118.945 88.9428C116.919 88.9428 115.287 88.3028 114.049 87.0228C112.812 85.7428 112.193 83.8975 112.193 81.4868C112.193 79.8868 112.524 78.5001 113.185 77.3268C113.868 76.1321 114.828 75.2148 116.065 74.5748C117.324 73.9348 118.785 73.6148 120.449 73.6148C123.82 73.6148 126.156 74.6068 127.457 76.5908C128.78 78.5748 129.441 81.4015 129.441 85.0708C129.441 89.2948 128.791 92.4628 127.489 94.5748C126.209 96.6868 124.044 97.7428 120.993 97.7428C119.308 97.7428 117.857 97.3908 116.641 96.6868C115.425 95.9828 114.487 95.0655 113.825 93.9348C113.185 92.7828 112.823 91.5455 112.737 90.2228H119.361ZM120.705 83.5028C121.281 83.5028 121.74 83.3428 122.081 83.0228C122.423 82.7028 122.593 82.2548 122.593 81.6788C122.593 81.0388 122.423 80.5695 122.081 80.2708C121.761 79.9508 121.303 79.7908 120.705 79.7908C120.108 79.7908 119.639 79.9508 119.297 80.2708C118.977 80.5695 118.817 81.0388 118.817 81.6788C118.817 82.2548 118.988 82.7028 119.329 83.0228C119.671 83.3428 120.129 83.5028 120.705 83.5028ZM138.455 90.2228C138.562 90.8415 138.754 91.3108 139.031 91.6308C139.33 91.9295 139.735 92.0788 140.247 92.0788C141.036 92.0788 141.548 91.6841 141.783 90.8948C142.039 90.0841 142.167 88.7935 142.167 87.0228C141.783 87.6201 141.228 88.0895 140.503 88.4308C139.778 88.7721 138.956 88.9428 138.039 88.9428C136.012 88.9428 134.38 88.3028 133.143 87.0228C131.906 85.7428 131.287 83.8975 131.287 81.4868C131.287 79.8868 131.618 78.5001 132.279 77.3268C132.962 76.1321 133.922 75.2148 135.159 74.5748C136.418 73.9348 137.879 73.6148 139.543 73.6148C142.914 73.6148 145.25 74.6068 146.551 76.5908C147.874 78.5748 148.535 81.4015 148.535 85.0708C148.535 89.2948 147.884 92.4628 146.583 94.5748C145.303 96.6868 143.138 97.7428 140.087 97.7428C138.402 97.7428 136.951 97.3908 135.735 96.6868C134.519 95.9828 133.58 95.0655 132.919 93.9348C132.279 92.7828 131.916 91.5455 131.831 90.2228H138.455ZM139.799 83.5028C140.375 83.5028 140.834 83.3428 141.175 83.0228C141.516 82.7028 141.687 82.2548 141.687 81.6788C141.687 81.0388 141.516 80.5695 141.175 80.2708C140.855 79.9508 140.396 79.7908 139.799 79.7908C139.202 79.7908 138.732 79.9508 138.391 80.2708C138.071 80.5695 137.911 81.0388 137.911 81.6788C137.911 82.2548 138.082 82.7028 138.423 83.0228C138.764 83.3428 139.223 83.5028 139.799 83.5028ZM150.317 91.8548C153.176 89.7215 155.437 87.7908 157.101 86.0628C158.765 84.3135 159.597 82.6815 159.597 81.1668C159.597 80.6548 159.48 80.2601 159.245 79.9828C159.032 79.7055 158.744 79.5668 158.381 79.5668C157.954 79.5668 157.613 79.7908 157.357 80.2388C157.122 80.6655 157.037 81.3268 157.101 82.2228H150.221C150.285 80.2388 150.712 78.6068 151.501 77.3268C152.312 76.0468 153.357 75.1081 154.637 74.5108C155.917 73.9135 157.325 73.6148 158.861 73.6148C161.592 73.6148 163.586 74.2761 164.845 75.5988C166.125 76.9001 166.765 78.5748 166.765 80.6228C166.765 82.7775 166.072 84.8041 164.685 86.7028C163.32 88.5801 161.602 90.1695 159.533 91.4708H166.861V97.1988H150.317V91.8548ZM176.762 91.8548L173.466 101.359H168.986L170.49 91.8548H176.762ZM180.147 93.9988V88.0788L189.683 74.4788H197.331V87.8548H199.635V93.9988H197.331V97.5188H190.163V93.9988H180.147ZM190.739 82.5748L187.283 87.8548H190.739V82.5748ZM202.679 93.9988V88.0788L212.215 74.4788H219.863V87.8548H222.167V93.9988H219.863V97.5188H212.695V93.9988H202.679ZM213.271 82.5748L209.815 87.8548H213.271V82.5748ZM98.0801 122.223C98.1868 122.841 98.3788 123.311 98.6561 123.631C98.9548 123.929 99.3601 124.079 99.8721 124.079C100.661 124.079 101.173 123.684 101.408 122.895C101.664 122.084 101.792 120.793 101.792 119.023C101.408 119.62 100.853 120.089 100.128 120.431C99.4028 120.772 98.5815 120.943 97.6641 120.943C95.6375 120.943 94.0055 120.303 92.7681 119.023C91.5308 117.743 90.9121 115.897 90.9121 113.487C90.9121 111.887 91.2428 110.5 91.9041 109.327C92.5868 108.132 93.5468 107.215 94.7841 106.575C96.0428 105.935 97.5041 105.615 99.1681 105.615C102.539 105.615 104.875 106.607 106.176 108.591C107.499 110.575 108.16 113.401 108.16 117.071C108.16 121.295 107.509 124.463 106.208 126.575C104.928 128.687 102.763 129.743 99.7121 129.743C98.0268 129.743 96.5761 129.391 95.3601 128.687C94.1441 127.983 93.2055 127.065 92.5441 125.935C91.9041 124.783 91.5415 123.545 91.4561 122.223H98.0801ZM99.4241 115.503C100 115.503 100.459 115.343 100.8 115.023C101.141 114.703 101.312 114.255 101.312 113.679C101.312 113.039 101.141 112.569 100.8 112.271C100.48 111.951 100.021 111.791 99.4241 111.791C98.8268 111.791 98.3575 111.951 98.0161 112.271C97.6961 112.569 97.5361 113.039 97.5361 113.679C97.5361 114.255 97.7068 114.703 98.0481 115.023C98.3895 115.343 98.8481 115.503 99.4241 115.503ZM111.926 129.663C111.23 129.663 110.672 129.477 110.252 129.105C109.832 128.733 109.622 128.265 109.622 127.701C109.622 127.125 109.832 126.651 110.252 126.279C110.672 125.895 111.23 125.703 111.926 125.703C112.61 125.703 113.162 125.895 113.582 126.279C114.002 126.651 114.212 127.125 114.212 127.701C114.212 128.265 114.002 128.733 113.582 129.105C113.162 129.477 112.61 129.663 111.926 129.663ZM119.366 125.415C119.426 125.763 119.534 126.027 119.69 126.207C119.858 126.375 120.086 126.459 120.374 126.459C120.818 126.459 121.106 126.237 121.238 125.793C121.382 125.337 121.454 124.611 121.454 123.615C121.238 123.951 120.926 124.215 120.518 124.407C120.11 124.599 119.648 124.695 119.132 124.695C117.992 124.695 117.074 124.335 116.378 123.615C115.682 122.895 115.334 121.857 115.334 120.501C115.334 119.601 115.52 118.821 115.892 118.161C116.276 117.489 116.816 116.973 117.512 116.613C118.22 116.253 119.042 116.073 119.978 116.073C121.874 116.073 123.188 116.631 123.92 117.747C124.664 118.863 125.036 120.453 125.036 122.517C125.036 124.893 124.67 126.675 123.938 127.863C123.218 129.051 122 129.645 120.284 129.645C119.336 129.645 118.52 129.447 117.836 129.051C117.152 128.655 116.624 128.139 116.252 127.503C115.892 126.855 115.688 126.159 115.64 125.415H119.366ZM120.122 121.635C120.446 121.635 120.704 121.545 120.896 121.365C121.088 121.185 121.184 120.933 121.184 120.609C121.184 120.249 121.088 119.985 120.896 119.817C120.716 119.637 120.458 119.547 120.122 119.547C119.786 119.547 119.522 119.637 119.33 119.817C119.15 119.985 119.06 120.249 119.06 120.609C119.06 120.933 119.156 121.185 119.348 121.365C119.54 121.545 119.798 121.635 120.122 121.635ZM126.47 127.539V124.209L131.834 116.559H136.136V124.083H137.432V127.539H136.136V129.519H132.104V127.539H126.47ZM132.428 121.113L130.484 124.083H132.428V121.113Z" fill="#4878E2"/>
<path d="M139.628 114.979C139.628 115.699 139.43 116.347 139.034 116.923C138.65 117.499 138.086 117.961 137.342 118.309C136.598 118.657 135.704 118.843 134.66 118.867V120.307H133.544V118.831C132.152 118.699 131.024 118.279 130.16 117.571C129.296 116.863 128.822 115.891 128.738 114.655H132.986C133.022 115.147 133.208 115.483 133.544 115.663V113.899C132.5 113.611 131.672 113.347 131.06 113.107C130.46 112.867 129.914 112.471 129.422 111.919C128.942 111.367 128.702 110.617 128.702 109.669C128.702 108.889 128.918 108.217 129.35 107.653C129.782 107.077 130.364 106.633 131.096 106.321C131.828 106.009 132.644 105.835 133.544 105.799V104.341H134.66V105.799C136.088 105.895 137.216 106.297 138.044 107.005C138.872 107.701 139.328 108.667 139.412 109.903H135.11C135.062 109.447 134.912 109.141 134.66 108.985V110.731C135.08 110.851 135.278 110.911 135.254 110.911C136.154 111.187 136.892 111.463 137.468 111.739C138.056 112.003 138.56 112.399 138.98 112.927C139.412 113.455 139.628 114.139 139.628 114.979ZM132.986 109.489C132.986 109.801 133.172 110.065 133.544 110.281V108.841C133.172 108.913 132.986 109.129 132.986 109.489ZM134.66 115.825C135.128 115.729 135.362 115.477 135.362 115.069C135.362 114.757 135.128 114.493 134.66 114.277V115.825ZM140.637 115.555C142.245 114.355 143.517 113.269 144.453 112.297C145.389 111.313 145.857 110.395 145.857 109.543C145.857 109.255 145.791 109.033 145.659 108.877C145.539 108.721 145.377 108.643 145.173 108.643C144.933 108.643 144.741 108.769 144.597 109.021C144.465 109.261 144.417 109.633 144.453 110.137H140.583C140.619 109.021 140.859 108.103 141.303 107.383C141.759 106.663 142.347 106.135 143.067 105.799C143.787 105.463 144.579 105.295 145.443 105.295C146.979 105.295 148.101 105.667 148.809 106.411C149.529 107.143 149.889 108.085 149.889 109.237C149.889 110.449 149.499 111.589 148.719 112.657C147.951 113.713 146.985 114.607 145.821 115.339H149.943V118.561H140.637V115.555ZM154.9 114.637C154.96 114.985 155.068 115.249 155.224 115.429C155.392 115.597 155.62 115.681 155.908 115.681C156.352 115.681 156.64 115.459 156.772 115.015C156.916 114.559 156.988 113.833 156.988 112.837C156.772 113.173 156.46 113.437 156.052 113.629C155.644 113.821 155.182 113.917 154.666 113.917C153.526 113.917 152.608 113.557 151.912 112.837C151.216 112.117 150.868 111.079 150.868 109.723C150.868 108.823 151.054 108.043 151.426 107.383C151.81 106.711 152.35 106.195 153.046 105.835C153.754 105.475 154.576 105.295 155.512 105.295C157.408 105.295 158.722 105.853 159.454 106.969C160.198 108.085 160.57 109.675 160.57 111.739C160.57 114.115 160.204 115.897 159.472 117.085C158.752 118.273 157.534 118.867 155.818 118.867C154.87 118.867 154.054 118.669 153.37 118.273C152.686 117.877 152.158 117.361 151.786 116.725C151.426 116.077 151.222 115.381 151.174 114.637H154.9ZM155.656 110.857C155.98 110.857 156.238 110.767 156.43 110.587C156.622 110.407 156.718 110.155 156.718 109.831C156.718 109.471 156.622 109.207 156.43 109.039C156.25 108.859 155.992 108.769 155.656 108.769C155.32 108.769 155.056 108.859 154.864 109.039C154.684 109.207 154.594 109.471 154.594 109.831C154.594 110.155 154.69 110.407 154.882 110.587C155.074 110.767 155.332 110.857 155.656 110.857ZM165.64 114.637C165.7 114.985 165.808 115.249 165.964 115.429C166.132 115.597 166.36 115.681 166.648 115.681C167.092 115.681 167.38 115.459 167.512 115.015C167.656 114.559 167.728 113.833 167.728 112.837C167.512 113.173 167.2 113.437 166.792 113.629C166.384 113.821 165.922 113.917 165.406 113.917C164.266 113.917 163.348 113.557 162.652 112.837C161.956 112.117 161.608 111.079 161.608 109.723C161.608 108.823 161.794 108.043 162.166 107.383C162.55 106.711 163.09 106.195 163.786 105.835C164.494 105.475 165.316 105.295 166.252 105.295C168.148 105.295 169.462 105.853 170.194 106.969C170.938 108.085 171.31 109.675 171.31 111.739C171.31 114.115 170.944 115.897 170.212 117.085C169.492 118.273 168.274 118.867 166.558 118.867C165.61 118.867 164.794 118.669 164.11 118.273C163.426 117.877 162.898 117.361 162.526 116.725C162.166 116.077 161.962 115.381 161.914 114.637H165.64ZM166.396 110.857C166.72 110.857 166.978 110.767 167.17 110.587C167.362 110.407 167.458 110.155 167.458 109.831C167.458 109.471 167.362 109.207 167.17 109.039C166.99 108.859 166.732 108.769 166.396 108.769C166.06 108.769 165.796 108.859 165.604 109.039C165.424 109.207 165.334 109.471 165.334 109.831C165.334 110.155 165.43 110.407 165.622 110.587C165.814 110.767 166.072 110.857 166.396 110.857ZM131.042 142.885C130.346 142.885 129.788 142.699 129.368 142.327C128.948 141.955 128.738 141.487 128.738 140.923C128.738 140.347 128.948 139.873 129.368 139.501C129.788 139.117 130.346 138.925 131.042 138.925C131.726 138.925 132.278 139.117 132.698 139.501C133.118 139.873 133.328 140.347 133.328 140.923C133.328 141.487 133.118 141.955 132.698 142.327C132.278 142.699 131.726 142.885 131.042 142.885ZM140.48 133.579C140.408 133.219 140.3 132.955 140.156 132.787C140.024 132.619 139.814 132.535 139.526 132.535C139.07 132.535 138.764 132.769 138.608 133.237C138.464 133.693 138.392 134.407 138.392 135.379C138.608 135.043 138.92 134.779 139.328 134.587C139.736 134.395 140.198 134.299 140.714 134.299C141.866 134.299 142.784 134.653 143.468 135.361C144.164 136.069 144.512 137.095 144.512 138.439C144.512 139.339 144.32 140.125 143.936 140.797C143.564 141.457 143.03 141.967 142.334 142.327C141.638 142.687 140.816 142.867 139.868 142.867C137.984 142.867 136.676 142.291 135.944 141.139C135.212 139.975 134.846 138.349 134.846 136.261C134.846 134.629 135.014 133.309 135.35 132.301C135.686 131.293 136.214 130.549 136.934 130.069C137.666 129.589 138.614 129.349 139.778 129.349C141.206 129.349 142.28 129.757 143 130.573C143.732 131.389 144.134 132.391 144.206 133.579H140.48ZM139.724 137.359C139.4 137.359 139.142 137.449 138.95 137.629C138.758 137.809 138.662 138.061 138.662 138.385C138.662 138.745 138.752 139.015 138.932 139.195C139.124 139.363 139.388 139.447 139.724 139.447C140.06 139.447 140.318 139.363 140.498 139.195C140.69 139.015 140.786 138.745 140.786 138.385C140.786 138.061 140.69 137.809 140.498 137.629C140.306 137.449 140.048 137.359 139.724 137.359ZM145.805 139.555C147.413 138.355 148.685 137.269 149.621 136.297C150.557 135.313 151.025 134.395 151.025 133.543C151.025 133.255 150.959 133.033 150.827 132.877C150.707 132.721 150.545 132.643 150.341 132.643C150.101 132.643 149.909 132.769 149.765 133.021C149.633 133.261 149.585 133.633 149.621 134.137H145.751C145.787 133.021 146.027 132.103 146.471 131.383C146.927 130.663 147.515 130.135 148.235 129.799C148.955 129.463 149.747 129.295 150.611 129.295C152.147 129.295 153.269 129.667 153.977 130.411C154.697 131.143 155.057 132.085 155.057 133.237C155.057 134.449 154.667 135.589 153.887 136.657C153.119 137.713 152.153 138.607 150.989 139.339H155.111V142.561H145.805V139.555Z" fill="#2DA26E"/>
<path d="M194.053 104.371L190.343 120.513H187.361L191.085 104.371H194.053ZM188.145 137.793C188.145 136.962 188.285 136.243 188.565 135.637C188.855 135.021 189.247 134.554 189.741 134.237C190.236 133.91 190.791 133.747 191.407 133.747C191.921 133.747 192.359 133.854 192.723 134.069C193.097 134.274 193.381 134.559 193.577 134.923V131.381H196.685V141.741H193.577V140.663C193.381 141.027 193.097 141.316 192.723 141.531C192.359 141.736 191.921 141.839 191.407 141.839C190.791 141.839 190.236 141.68 189.741 141.363C189.247 141.036 188.855 140.569 188.565 139.963C188.285 139.347 188.145 138.623 188.145 137.793ZM193.591 137.793C193.591 137.373 193.484 137.046 193.269 136.813C193.055 136.579 192.779 136.463 192.443 136.463C192.107 136.463 191.832 136.579 191.617 136.813C191.403 137.046 191.295 137.373 191.295 137.793C191.295 138.213 191.403 138.539 191.617 138.773C191.832 139.006 192.107 139.123 192.443 139.123C192.779 139.123 193.055 139.006 193.269 138.773C193.484 138.539 193.591 138.213 193.591 137.793ZM197.661 137.793C197.661 136.962 197.801 136.243 198.081 135.637C198.37 135.021 198.762 134.554 199.257 134.237C199.752 133.91 200.307 133.747 200.923 133.747C201.436 133.747 201.88 133.854 202.253 134.069C202.626 134.274 202.911 134.559 203.107 134.923V133.845H206.201V141.741H203.107V140.663C202.911 141.027 202.626 141.316 202.253 141.531C201.88 141.736 201.436 141.839 200.923 141.839C200.307 141.839 199.752 141.68 199.257 141.363C198.762 141.036 198.37 140.569 198.081 139.963C197.801 139.347 197.661 138.623 197.661 137.793ZM203.107 137.793C203.107 137.373 203 137.046 202.785 136.813C202.57 136.579 202.295 136.463 201.959 136.463C201.623 136.463 201.348 136.579 201.133 136.813C200.918 137.046 200.811 137.373 200.811 137.793C200.811 138.213 200.918 138.539 201.133 138.773C201.348 139.006 201.623 139.123 201.959 139.123C202.295 139.123 202.57 139.006 202.785 138.773C203 138.539 203.107 138.213 203.107 137.793ZM197.483 157.845L192.429 169.521H189.027L191.015 165.349L187.725 157.845H191.183L192.667 161.849L194.053 157.845H197.483Z" fill="#2DA26E"/>
<path fill-rule="evenodd" clip-rule="evenodd" d="M119.032 104.185C118.798 104 118.42 104 118.187 104.185L115.003 106.703C114.77 106.888 114.77 107.187 115.003 107.371C115.236 107.555 115.614 107.555 115.847 107.371L118.012 105.659V112.074C118.012 112.335 118.28 112.546 118.609 112.546C118.939 112.546 119.206 112.335 119.206 112.074V105.659L121.371 107.371C121.605 107.555 121.983 107.555 122.216 107.371C122.449 107.187 122.449 106.888 122.216 106.703L119.032 104.185Z" fill="#2DA26E"/>
<rect x="341.498" y="50.3704" width="187.068" height="30.2222" rx="15.1111" fill="#E8EEFB"/>
<path d="M378.74 63.5326V73.4446H375.632V63.5326H378.74ZM390.685 65.4926C391.693 65.4926 392.473 65.7959 393.023 66.4026C393.583 67.0092 393.863 67.8306 393.863 68.8666V73.4446H390.769V69.2586C390.769 68.9226 390.667 68.6612 390.461 68.4746C390.265 68.2786 389.999 68.1806 389.663 68.1806C389.318 68.1806 389.047 68.2786 388.851 68.4746C388.655 68.6612 388.557 68.9226 388.557 69.2586V73.4446H385.463V69.2586C385.463 68.9226 385.361 68.6612 385.155 68.4746C384.959 68.2786 384.693 68.1806 384.357 68.1806C384.012 68.1806 383.741 68.2786 383.545 68.4746C383.349 68.6612 383.251 68.9226 383.251 69.2586V73.4446H380.143V65.5486H383.251V66.6126C383.475 66.2766 383.779 66.0059 384.161 65.8006C384.553 65.5952 385.011 65.4926 385.533 65.4926C386.103 65.4926 386.607 65.6186 387.045 65.8706C387.484 66.1132 387.834 66.4586 388.095 66.9066C388.385 66.4959 388.753 66.1599 389.201 65.8986C389.649 65.6279 390.144 65.4926 390.685 65.4926ZM398.318 66.6266C398.514 66.2626 398.794 65.9779 399.158 65.7726C399.531 65.5579 399.974 65.4506 400.488 65.4506C401.104 65.4506 401.659 65.6139 402.154 65.9406C402.648 66.2579 403.036 66.7246 403.316 67.3406C403.605 67.9472 403.75 68.6659 403.75 69.4966C403.75 70.3272 403.605 71.0506 403.316 71.6666C403.036 72.2732 402.648 72.7399 402.154 73.0666C401.659 73.3839 401.104 73.5426 400.488 73.5426C399.974 73.5426 399.531 73.4399 399.158 73.2346C398.794 73.0199 398.514 72.7306 398.318 72.3666V77.2246H395.21V65.5486H398.318V66.6266ZM400.6 69.4966C400.6 69.0766 400.492 68.7499 400.278 68.5166C400.063 68.2832 399.788 68.1666 399.452 68.1666C399.116 68.1666 398.84 68.2832 398.626 68.5166C398.411 68.7499 398.304 69.0766 398.304 69.4966C398.304 69.9166 398.411 70.2432 398.626 70.4766C398.84 70.7099 399.116 70.8266 399.452 70.8266C399.788 70.8266 400.063 70.7099 400.278 70.4766C400.492 70.2432 400.6 69.9166 400.6 69.4966ZM407.833 67.0046C408.151 66.5472 408.538 66.1832 408.995 65.9126C409.453 65.6326 409.929 65.4926 410.423 65.4926V68.8106H409.541C408.953 68.8106 408.519 68.9132 408.239 69.1186C407.969 69.3239 407.833 69.6879 407.833 70.2106V73.4446H404.725V65.5486H407.833V67.0046ZM415.013 73.5426C414.219 73.5426 413.505 73.3792 412.871 73.0526C412.236 72.7259 411.737 72.2592 411.373 71.6526C411.018 71.0366 410.841 70.3179 410.841 69.4966C410.841 68.6752 411.018 67.9612 411.373 67.3546C411.737 66.7386 412.236 66.2672 412.871 65.9406C413.505 65.6139 414.219 65.4506 415.013 65.4506C415.806 65.4506 416.52 65.6139 417.155 65.9406C417.789 66.2672 418.284 66.7386 418.639 67.3546C419.003 67.9612 419.185 68.6752 419.185 69.4966C419.185 70.3179 419.003 71.0366 418.639 71.6526C418.284 72.2592 417.789 72.7259 417.155 73.0526C416.52 73.3792 415.806 73.5426 415.013 73.5426ZM415.013 70.8546C415.302 70.8546 415.545 70.7426 415.741 70.5186C415.937 70.2852 416.035 69.9446 416.035 69.4966C416.035 69.0486 415.937 68.7126 415.741 68.4886C415.545 68.2552 415.302 68.1386 415.013 68.1386C414.723 68.1386 414.481 68.2552 414.285 68.4886C414.089 68.7126 413.991 69.0486 413.991 69.4966C413.991 69.9446 414.084 70.2852 414.271 70.5186C414.467 70.7426 414.714 70.8546 415.013 70.8546ZM424.165 70.4906L425.425 65.5486H428.729L426.097 73.4446H422.219L419.587 65.5486H422.891L424.165 70.4906ZM437.198 69.4266C437.198 69.6412 437.184 69.8466 437.156 70.0426H432.158C432.204 70.7239 432.489 71.0646 433.012 71.0646C433.348 71.0646 433.59 70.9106 433.74 70.6026H437.03C436.918 71.1626 436.68 71.6666 436.316 72.1146C435.961 72.5532 435.508 72.9032 434.958 73.1646C434.416 73.4166 433.819 73.5426 433.166 73.5426C432.382 73.5426 431.682 73.3792 431.066 73.0526C430.459 72.7259 429.983 72.2592 429.638 71.6526C429.302 71.0366 429.134 70.3179 429.134 69.4966C429.134 68.6752 429.302 67.9612 429.638 67.3546C429.983 66.7386 430.459 66.2672 431.066 65.9406C431.682 65.6139 432.382 65.4506 433.166 65.4506C433.95 65.4506 434.645 65.6139 435.252 65.9406C435.868 66.2579 436.344 66.7152 436.68 67.3126C437.025 67.9099 437.198 68.6146 437.198 69.4266ZM434.048 68.6846C434.048 68.4232 433.964 68.2272 433.796 68.0966C433.628 67.9566 433.418 67.8866 433.166 67.8866C432.615 67.8866 432.293 68.1526 432.2 68.6846H434.048ZM375.212 85.4966C375.212 84.6659 375.352 83.9472 375.632 83.3406C375.921 82.7246 376.313 82.2579 376.808 81.9406C377.302 81.6139 377.858 81.4506 378.474 81.4506C378.987 81.4506 379.43 81.5579 379.804 81.7726C380.177 81.9779 380.462 82.2626 380.658 82.6266V81.5486H383.752V89.4446H380.658V88.3666C380.462 88.7306 380.177 89.0199 379.804 89.2346C379.43 89.4399 378.987 89.5426 378.474 89.5426C377.858 89.5426 377.302 89.3839 376.808 89.0666C376.313 88.7399 375.921 88.2732 375.632 87.6666C375.352 87.0506 375.212 86.3272 375.212 85.4966ZM380.658 85.4966C380.658 85.0766 380.55 84.7499 380.336 84.5166C380.121 84.2832 379.846 84.1666 379.51 84.1666C379.174 84.1666 378.898 84.2832 378.684 84.5166C378.469 84.7499 378.362 85.0766 378.362 85.4966C378.362 85.9166 378.469 86.2432 378.684 86.4766C378.898 86.7099 379.174 86.8266 379.51 86.8266C379.846 86.8266 380.121 86.7099 380.336 86.4766C380.55 86.2432 380.658 85.9166 380.658 85.4966ZM384.727 85.4966C384.727 84.6752 384.895 83.9612 385.231 83.3546C385.577 82.7386 386.053 82.2672 386.659 81.9406C387.275 81.6139 387.975 81.4506 388.759 81.4506C389.786 81.4506 390.649 81.7399 391.349 82.3186C392.059 82.8972 392.507 83.6999 392.693 84.7266H389.403C389.282 84.3159 389.044 84.1106 388.689 84.1106C388.437 84.1106 388.237 84.2272 388.087 84.4606C387.947 84.6939 387.877 85.0392 387.877 85.4966C387.877 85.9539 387.947 86.2992 388.087 86.5326C388.237 86.7659 388.437 86.8826 388.689 86.8826C389.044 86.8826 389.282 86.6772 389.403 86.2666H392.693C392.507 87.2932 392.059 88.0959 391.349 88.6746C390.649 89.2532 389.786 89.5426 388.759 89.5426C387.975 89.5426 387.275 89.3792 386.659 89.0526C386.053 88.7259 385.577 88.2592 385.231 87.6526C384.895 87.0366 384.727 86.3179 384.727 85.4966ZM393.259 85.4966C393.259 84.6752 393.427 83.9612 393.763 83.3546C394.108 82.7386 394.584 82.2672 395.191 81.9406C395.807 81.6139 396.507 81.4506 397.291 81.4506C398.317 81.4506 399.181 81.7399 399.881 82.3186C400.59 82.8972 401.038 83.6999 401.225 84.7266H397.935C397.813 84.3159 397.575 84.1106 397.221 84.1106C396.969 84.1106 396.768 84.2272 396.619 84.4606C396.479 84.6939 396.409 85.0392 396.409 85.4966C396.409 85.9539 396.479 86.2992 396.619 86.5326C396.768 86.7659 396.969 86.8826 397.221 86.8826C397.575 86.8826 397.813 86.6772 397.935 86.2666H401.225C401.038 87.2932 400.59 88.0959 399.881 88.6746C399.181 89.2532 398.317 89.5426 397.291 89.5426C396.507 89.5426 395.807 89.3792 395.191 89.0526C394.584 88.7259 394.108 88.2592 393.763 87.6526C393.427 87.0366 393.259 86.3179 393.259 85.4966ZM410.568 81.5486V89.4446H407.46V88.2406C407.217 88.6139 406.89 88.9172 406.48 89.1506C406.078 89.3839 405.598 89.5006 405.038 89.5006C404.132 89.5006 403.423 89.1972 402.91 88.5906C402.406 87.9839 402.154 87.1626 402.154 86.1266V81.5486H405.248V85.7346C405.248 86.1079 405.346 86.4066 405.542 86.6306C405.747 86.8452 406.018 86.9526 406.354 86.9526C406.699 86.9526 406.97 86.8452 407.166 86.6306C407.362 86.4066 407.46 86.1079 407.46 85.7346V81.5486H410.568ZM415.079 83.0046C415.397 82.5472 415.784 82.1832 416.241 81.9126C416.699 81.6326 417.175 81.4926 417.669 81.4926V84.8106H416.787C416.199 84.8106 415.765 84.9132 415.485 85.1186C415.215 85.3239 415.079 85.6879 415.079 86.2106V89.4446H411.971V81.5486H415.079V83.0046ZM418.087 85.4966C418.087 84.6659 418.227 83.9472 418.507 83.3406C418.796 82.7246 419.188 82.2579 419.683 81.9406C420.177 81.6139 420.733 81.4506 421.349 81.4506C421.862 81.4506 422.305 81.5579 422.679 81.7726C423.052 81.9779 423.337 82.2626 423.533 82.6266V81.5486H426.627V89.4446H423.533V88.3666C423.337 88.7306 423.052 89.0199 422.679 89.2346C422.305 89.4399 421.862 89.5426 421.349 89.5426C420.733 89.5426 420.177 89.3839 419.683 89.0666C419.188 88.7399 418.796 88.2732 418.507 87.6666C418.227 87.0506 418.087 86.3272 418.087 85.4966ZM423.533 85.4966C423.533 85.0766 423.425 84.7499 423.211 84.5166C422.996 84.2832 422.721 84.1666 422.385 84.1666C422.049 84.1666 421.773 84.2832 421.559 84.5166C421.344 84.7499 421.237 85.0766 421.237 85.4966C421.237 85.9166 421.344 86.2432 421.559 86.4766C421.773 86.7099 422.049 86.8266 422.385 86.8266C422.721 86.8266 422.996 86.7099 423.211 86.4766C423.425 86.2432 423.533 85.9166 423.533 85.4966ZM427.602 85.4966C427.602 84.6752 427.77 83.9612 428.106 83.3546C428.452 82.7386 428.928 82.2672 429.534 81.9406C430.15 81.6139 430.85 81.4506 431.634 81.4506C432.661 81.4506 433.524 81.7399 434.224 82.3186C434.934 82.8972 435.382 83.6999 435.568 84.7266H432.278C432.157 84.3159 431.919 84.1106 431.564 84.1106C431.312 84.1106 431.112 84.2272 430.962 84.4606C430.822 84.6939 430.752 85.0392 430.752 85.4966C430.752 85.9539 430.822 86.2992 430.962 86.5326C431.112 86.7659 431.312 86.8826 431.564 86.8826C431.919 86.8826 432.157 86.6772 432.278 86.2666H435.568C435.382 87.2932 434.934 88.0959 434.224 88.6746C433.524 89.2532 432.661 89.5426 431.634 89.5426C430.85 89.5426 430.15 89.3792 429.534 89.0526C428.928 88.7259 428.452 88.2592 428.106 87.6526C427.77 87.0366 427.602 86.3179 427.602 85.4966ZM445.472 81.5486L440.418 93.2246H437.016L439.004 89.0526L435.714 81.5486H439.172L440.656 85.5526L442.042 81.5486H445.472Z" fill="#1463FF"/>
<path fill-rule="evenodd" clip-rule="evenodd" d="M491.575 65.8156C491.808 65.6312 491.808 65.3322 491.575 65.1478L488.391 62.6292C488.158 62.4448 487.78 62.4448 487.547 62.6292C487.314 62.8137 487.314 63.1127 487.547 63.2971L489.712 65.0095H481.601C481.271 65.0095 481.004 65.2209 481.004 65.4817C481.004 65.7425 481.271 65.9539 481.601 65.9539H489.712L487.547 67.6663C487.314 67.8507 487.314 68.1497 487.547 68.3341C487.78 68.5185 488.158 68.5185 488.391 68.3341L491.575 65.8156Z" fill="#1463FF"/>
<path d="M364.803 110.081C364.803 110.646 364.67 111.18 364.403 111.681C364.136 112.182 363.71 112.593 363.123 112.913C362.536 113.222 361.784 113.377 360.867 113.377H358.851V117.889H357.027V106.769H360.867C361.72 106.769 362.44 106.918 363.027 107.217C363.624 107.505 364.067 107.9 364.355 108.401C364.654 108.902 364.803 109.462 364.803 110.081ZM360.867 111.889C361.56 111.889 362.078 111.734 362.419 111.425C362.76 111.105 362.931 110.657 362.931 110.081C362.931 108.865 362.243 108.257 360.867 108.257H358.851V111.889H360.867ZM370.367 118.033C369.535 118.033 368.783 117.846 368.111 117.473C367.439 117.089 366.911 116.556 366.527 115.873C366.143 115.18 365.951 114.38 365.951 113.473C365.951 112.577 366.148 111.782 366.543 111.089C366.937 110.396 367.476 109.862 368.159 109.489C368.841 109.116 369.604 108.929 370.447 108.929C371.289 108.929 372.052 109.116 372.735 109.489C373.417 109.862 373.956 110.396 374.351 111.089C374.745 111.782 374.943 112.577 374.943 113.473C374.943 114.369 374.74 115.164 374.335 115.857C373.929 116.55 373.375 117.089 372.671 117.473C371.977 117.846 371.209 118.033 370.367 118.033ZM370.367 116.449C370.836 116.449 371.273 116.337 371.679 116.113C372.095 115.889 372.431 115.553 372.687 115.105C372.943 114.657 373.071 114.113 373.071 113.473C373.071 112.833 372.948 112.294 372.703 111.857C372.457 111.409 372.132 111.073 371.727 110.849C371.321 110.625 370.884 110.513 370.415 110.513C369.945 110.513 369.508 110.625 369.103 110.849C368.708 111.073 368.393 111.409 368.159 111.857C367.924 112.294 367.807 112.833 367.807 113.473C367.807 114.422 368.047 115.158 368.527 115.681C369.017 116.193 369.631 116.449 370.367 116.449ZM388.586 109.073L385.85 117.889H383.93L382.154 111.377L380.378 117.889H378.458L375.706 109.073H377.562L379.402 116.161L381.274 109.073H383.178L384.97 116.129L386.794 109.073H388.586ZM398.029 113.265C398.029 113.596 398.008 113.894 397.965 114.161H391.229C391.282 114.865 391.544 115.43 392.013 115.857C392.482 116.284 393.058 116.497 393.741 116.497C394.722 116.497 395.416 116.086 395.821 115.265H397.789C397.522 116.076 397.037 116.742 396.333 117.265C395.64 117.777 394.776 118.033 393.741 118.033C392.898 118.033 392.141 117.846 391.469 117.473C390.808 117.089 390.285 116.556 389.901 115.873C389.528 115.18 389.341 114.38 389.341 113.473C389.341 112.566 389.522 111.772 389.885 111.089C390.258 110.396 390.776 109.862 391.437 109.489C392.109 109.116 392.877 108.929 393.741 108.929C394.573 108.929 395.314 109.11 395.965 109.473C396.616 109.836 397.122 110.348 397.485 111.009C397.848 111.66 398.029 112.412 398.029 113.265ZM396.125 112.689C396.114 112.017 395.874 111.478 395.405 111.073C394.936 110.668 394.354 110.465 393.661 110.465C393.032 110.465 392.493 110.668 392.045 111.073C391.597 111.468 391.33 112.006 391.245 112.689H396.125ZM401.648 110.353C401.915 109.905 402.267 109.558 402.704 109.313C403.152 109.057 403.68 108.929 404.288 108.929V110.817H403.824C403.109 110.817 402.565 110.998 402.192 111.361C401.829 111.724 401.648 112.353 401.648 113.249V117.889H399.824V109.073H401.648V110.353ZM414.045 113.265C414.045 113.596 414.023 113.894 413.981 114.161H407.245C407.298 114.865 407.559 115.43 408.029 115.857C408.498 116.284 409.074 116.497 409.757 116.497C410.738 116.497 411.431 116.086 411.837 115.265H413.805C413.538 116.076 413.053 116.742 412.349 117.265C411.655 117.777 410.791 118.033 409.757 118.033C408.914 118.033 408.157 117.846 407.485 117.473C406.823 117.089 406.301 116.556 405.917 115.873C405.543 115.18 405.357 114.38 405.357 113.473C405.357 112.566 405.538 111.772 405.901 111.089C406.274 110.396 406.791 109.862 407.453 109.489C408.125 109.116 408.893 108.929 409.757 108.929C410.589 108.929 411.33 109.11 411.981 109.473C412.631 109.836 413.138 110.348 413.501 111.009C413.863 111.66 414.045 112.412 414.045 113.265ZM412.141 112.689C412.13 112.017 411.89 111.478 411.421 111.073C410.951 110.668 410.37 110.465 409.677 110.465C409.047 110.465 408.509 110.668 408.061 111.073C407.613 111.468 407.346 112.006 407.261 112.689H412.141ZM415.232 113.441C415.232 112.556 415.413 111.772 415.776 111.089C416.149 110.406 416.65 109.878 417.28 109.505C417.92 109.121 418.629 108.929 419.408 108.929C419.984 108.929 420.549 109.057 421.104 109.313C421.669 109.558 422.117 109.889 422.448 110.305V106.049H424.288V117.889H422.448V116.561C422.149 116.988 421.733 117.34 421.2 117.617C420.677 117.894 420.074 118.033 419.392 118.033C418.624 118.033 417.92 117.841 417.28 117.457C416.65 117.062 416.149 116.518 415.776 115.825C415.413 115.121 415.232 114.326 415.232 113.441ZM422.448 113.473C422.448 112.865 422.32 112.337 422.064 111.889C421.818 111.441 421.493 111.1 421.088 110.865C420.682 110.63 420.245 110.513 419.776 110.513C419.306 110.513 418.869 110.63 418.464 110.865C418.058 111.089 417.728 111.425 417.472 111.873C417.226 112.31 417.104 112.833 417.104 113.441C417.104 114.049 417.226 114.582 417.472 115.041C417.728 115.5 418.058 115.852 418.464 116.097C418.88 116.332 419.317 116.449 419.776 116.449C420.245 116.449 420.682 116.332 421.088 116.097C421.493 115.862 421.818 115.521 422.064 115.073C422.32 114.614 422.448 114.081 422.448 113.473ZM358.851 126.385C359.16 125.958 359.582 125.612 360.115 125.345C360.659 125.068 361.262 124.929 361.923 124.929C362.702 124.929 363.406 125.116 364.035 125.489C364.664 125.862 365.16 126.396 365.523 127.089C365.886 127.772 366.067 128.556 366.067 129.441C366.067 130.326 365.886 131.121 365.523 131.825C365.16 132.518 364.659 133.062 364.019 133.457C363.39 133.841 362.691 134.033 361.923 134.033C361.24 134.033 360.632 133.9 360.099 133.633C359.576 133.366 359.16 133.025 358.851 132.609V133.889H357.027V122.049H358.851V126.385ZM364.211 129.441C364.211 128.833 364.083 128.31 363.827 127.873C363.582 127.425 363.251 127.089 362.835 126.865C362.43 126.63 361.992 126.513 361.523 126.513C361.064 126.513 360.627 126.63 360.211 126.865C359.806 127.1 359.475 127.441 359.219 127.889C358.974 128.337 358.851 128.865 358.851 129.473C358.851 130.081 358.974 130.614 359.219 131.073C359.475 131.521 359.806 131.862 360.211 132.097C360.627 132.332 361.064 132.449 361.523 132.449C361.992 132.449 362.43 132.332 362.835 132.097C363.251 131.852 363.582 131.5 363.827 131.041C364.083 130.582 364.211 130.049 364.211 129.441ZM375.807 125.073L370.399 138.033H368.511L370.303 133.745L366.831 125.073H368.863L371.343 131.793L373.919 125.073H375.807Z" fill="#2DA26E"/>
<g clip-path="url(#clip0_38_87)">
<path d="M478.829 99.7568C478.206 99.7568 477.703 100.156 477.703 100.649V110.11C477.703 110.604 478.206 111.002 478.829 111.002C479.452 111.002 479.955 110.604 479.955 110.11V100.643C479.955 100.156 479.452 99.7568 478.829 99.7568Z" fill="#003960"/>
<path d="M470.675 102.56C469.197 102.56 467.928 103.003 467.009 103.731V103.548C467.009 103.111 466.562 102.756 466.011 102.756C465.46 102.756 465.013 103.111 465.013 103.548V112.604C465.013 113.097 465.524 113.502 466.147 113.502C466.77 113.502 467.281 113.097 467.281 112.604V110.205C468.151 110.813 469.317 111.192 470.675 111.192C473.758 111.192 475.898 109.281 475.898 106.87C475.898 104.452 473.734 102.56 470.675 102.56ZM470.363 109.629C468.574 109.629 467.121 108.674 467.121 106.876C467.121 105.079 468.599 104.123 470.363 104.123C472.36 104.123 473.63 105.357 473.63 106.876C473.63 108.395 472.36 109.629 470.363 109.629Z" fill="#003960"/>
<path d="M498.97 102.56C497.453 102.56 496.311 103.073 495.576 103.832V103.548C495.576 103.111 495.128 102.756 494.577 102.756C494.026 102.756 493.579 103.111 493.579 103.548V110.091C493.579 110.591 494.091 110.996 494.721 110.996C495.352 110.996 495.863 110.591 495.863 110.091V106.186C495.863 104.933 496.942 104.111 498.467 104.111C500.048 104.111 500.982 104.933 500.982 106.186V110.091C500.982 110.591 501.493 110.996 502.125 110.996C502.756 110.996 503.267 110.591 503.267 110.091V106.035C503.275 103.991 501.59 102.56 498.97 102.56Z" fill="#003960"/>
<path d="M513.545 109.642L510.367 106.446L513.497 103.832C513.865 103.516 513.841 103.022 513.441 102.731C513.042 102.44 512.419 102.459 512.052 102.775L507.532 106.629V100.655C507.532 100.162 507.021 99.7568 506.398 99.7568C505.775 99.7568 505.264 100.162 505.264 100.655V110.104C505.264 110.597 505.775 111.002 506.398 111.002C507.021 111.002 507.532 110.597 507.532 110.104V108.395L508.698 107.421L511.852 110.667C512.212 111.034 512.875 111.104 513.346 110.819C513.817 110.54 513.905 110.015 513.545 109.642Z" fill="#003960"/>
<path d="M490.313 102.757C489.69 102.757 489.179 103.162 489.179 103.655V107.573C489.179 108.826 488.205 109.648 486.679 109.648C485.242 109.648 484.307 108.838 484.307 107.655V103.655C484.307 103.162 483.796 102.757 483.173 102.757C482.55 102.757 482.039 103.162 482.039 103.655V107.718C482.039 109.813 483.724 111.199 486.224 111.199C487.677 111.199 488.763 110.718 489.45 110.009V110.205C489.45 110.642 489.898 110.996 490.449 110.996C490.999 110.996 491.447 110.642 491.447 110.205V103.655C491.447 103.155 490.936 102.757 490.313 102.757Z" fill="#003960"/>
<path d="M513.21 99.8013H512.371C512.316 99.8013 512.268 99.8392 512.268 99.8835C512.268 99.9278 512.316 99.9658 512.371 99.9658H512.667V100.713C512.667 100.763 512.723 100.807 512.787 100.807C512.851 100.807 512.907 100.763 512.907 100.713V99.9721H513.202C513.258 99.9721 513.306 99.9342 513.306 99.8899C513.306 99.8456 513.266 99.8013 513.21 99.8013Z" fill="#003960"/>
<path d="M514.791 100.713L514.656 99.8645C514.648 99.8266 514.616 99.8013 514.568 99.8013C514.528 99.8013 514.504 99.8202 514.488 99.8456L514.088 100.535L513.689 99.8456C513.673 99.8202 513.641 99.8013 513.609 99.8013C513.562 99.8013 513.522 99.8266 513.522 99.8645L513.394 100.706C513.394 100.713 513.394 100.713 513.394 100.719C513.394 100.725 513.394 100.725 513.394 100.732C513.402 100.776 513.45 100.814 513.505 100.814C513.569 100.814 513.617 100.776 513.617 100.732L513.689 100.219L514.001 100.77C514.017 100.795 514.048 100.814 514.088 100.814C514.128 100.814 514.16 100.795 514.176 100.77L514.488 100.219L514.56 100.738C514.568 100.782 514.616 100.814 514.671 100.814C514.735 100.814 514.783 100.776 514.783 100.725C514.791 100.719 514.791 100.719 514.791 100.713Z" fill="#003960"/>
<path d="M457.873 103.586C457.841 102.567 457.194 101.618 456.148 101.029C452.906 99.2064 449.559 97.4977 446.109 95.9219C445.478 95.6308 444.696 95.6308 444.065 95.9219C440.615 97.4977 437.26 99.2001 434.018 101.029C432.972 101.618 432.325 102.56 432.293 103.586C432.261 104.497 432.245 105.415 432.245 106.339C432.245 108.364 432.317 110.37 432.469 112.363C432.589 113.99 434.218 115.293 436.27 115.401C438.858 115.54 441.477 115.616 444.105 115.635C444.352 115.635 444.552 115.477 444.552 115.281V111.363C444.552 111.192 444.392 111.041 444.185 111.015C442.699 110.819 441.357 110.275 440.311 109.49C439.904 109.18 439.537 108.826 439.217 108.44C437.979 106.946 437.716 105.18 438.299 103.649C438.474 103.193 439.041 102.896 439.64 102.953C441.645 103.143 443.578 104.041 444.807 105.535C445.303 106.136 445.646 106.788 445.838 107.44C446.117 107.136 446.445 106.851 446.828 106.598C448.202 105.693 449.927 105.383 451.492 105.636C451.875 105.699 452.155 105.965 452.163 106.275C452.187 107.421 451.62 108.585 450.494 109.471C449.439 110.262 448.098 110.813 446.604 111.003C446.389 111.028 446.237 111.18 446.237 111.351V115.268C446.237 115.464 446.437 115.622 446.692 115.622C449.112 115.597 451.516 115.521 453.904 115.394C455.956 115.281 457.577 113.983 457.705 112.357C457.857 110.363 457.929 108.357 457.929 106.332C457.921 105.415 457.905 104.497 457.873 103.586Z" fill="url(#paint0_linear_38_87)"/>
</g>
<rect x="280.203" y="50.3704" width="0.796034" height="65.4814" fill="#E3E7F1"/>
</g>
</g>
<rect x="177.514" y="68" width="206.969" height="30.2222" rx="15.1111" fill="url(#paint1_linear_38_87)"/>
<mask id="mask1_38_87" style="mask-type:alpha" maskUnits="userSpaceOnUse" x="177" y="68" width="208" height="31">
<rect x="177.514" y="68" width="206.969" height="30.2222" rx="15.1111" fill="#1A56DB"/>
</mask>
<g mask="url(#mask1_38_87)">
<g filter="url(#filter1_f_38_87)">
<ellipse cx="196.485" cy="90.9814" rx="47.7178" ry="26.1296" fill="url(#paint2_linear_38_87)"/>
</g>
<g filter="url(#filter2_f_38_87)">
<ellipse cx="47.7178" cy="26.1296" rx="47.7178" ry="26.1296" transform="matrix(-1 0 0 1 305.145 45.9629)" fill="url(#paint3_linear_38_87)"/>
</g>
</g>
<path d="M224.555 86.063C223.955 86.063 223.403 85.922 222.899 85.64C222.401 85.358 222.005 84.968 221.711 84.47C221.417 83.972 221.27 83.411 221.27 82.787C221.27 82.163 221.417 81.602 221.711 81.104C222.005 80.606 222.401 80.219 222.899 79.943C223.403 79.661 223.955 79.52 224.555 79.52C225.155 79.52 225.704 79.661 226.202 79.943C226.7 80.219 227.093 80.606 227.381 81.104C227.675 81.602 227.822 82.163 227.822 82.787C227.822 83.411 227.675 83.972 227.381 84.47C227.093 84.968 226.697 85.358 226.193 85.64C225.695 85.922 225.149 86.063 224.555 86.063ZM224.555 84.2C224.951 84.2 225.257 84.074 225.473 83.822C225.689 83.564 225.797 83.219 225.797 82.787C225.797 82.349 225.689 82.004 225.473 81.752C225.257 81.494 224.951 81.365 224.555 81.365C224.153 81.365 223.844 81.494 223.628 81.752C223.412 82.004 223.304 82.349 223.304 82.787C223.304 83.219 223.412 83.564 223.628 83.822C223.844 84.074 224.153 84.2 224.555 84.2ZM232.098 80.888C232.68 80.888 233.133 81.083 233.457 81.473C233.787 81.863 233.952 82.391 233.952 83.057V86H231.963V83.309C231.963 83.069 231.897 82.88 231.765 82.742C231.639 82.598 231.468 82.526 231.252 82.526C231.03 82.526 230.856 82.598 230.73 82.742C230.604 82.88 230.541 83.069 230.541 83.309V86H228.543V80.924H230.541V81.698C230.697 81.458 230.904 81.263 231.162 81.113C231.426 80.963 231.738 80.888 232.098 80.888ZM236.816 79.34V86H234.818V79.34H236.816ZM243.452 80.924L240.203 88.43H238.016L239.294 85.748L237.179 80.924H239.402L240.356 83.498L241.247 80.924H243.452ZM249.839 79.628V81.212H247.337V82.094H249.137V83.597H247.337V86H245.339V79.628H249.839ZM252.927 86.063C252.417 86.063 251.958 85.958 251.55 85.748C251.142 85.538 250.821 85.238 250.587 84.848C250.359 84.452 250.245 83.99 250.245 83.462C250.245 82.934 250.359 82.475 250.587 82.085C250.821 81.689 251.142 81.386 251.55 81.176C251.958 80.966 252.417 80.861 252.927 80.861C253.437 80.861 253.896 80.966 254.304 81.176C254.712 81.386 255.03 81.689 255.258 82.085C255.492 82.475 255.609 82.934 255.609 83.462C255.609 83.99 255.492 84.452 255.258 84.848C255.03 85.238 254.712 85.538 254.304 85.748C253.896 85.958 253.437 86.063 252.927 86.063ZM252.927 84.335C253.113 84.335 253.269 84.263 253.395 84.119C253.521 83.969 253.584 83.75 253.584 83.462C253.584 83.174 253.521 82.958 253.395 82.814C253.269 82.664 253.113 82.589 252.927 82.589C252.741 82.589 252.585 82.664 252.459 82.814C252.333 82.958 252.27 83.174 252.27 83.462C252.27 83.75 252.33 83.969 252.45 84.119C252.576 84.263 252.735 84.335 252.927 84.335ZM255.967 83.462C255.967 82.934 256.075 82.475 256.291 82.085C256.513 81.689 256.819 81.386 257.209 81.176C257.605 80.966 258.055 80.861 258.559 80.861C259.219 80.861 259.774 81.047 260.224 81.419C260.68 81.791 260.968 82.307 261.088 82.967H258.973C258.895 82.703 258.742 82.571 258.514 82.571C258.352 82.571 258.223 82.646 258.127 82.796C258.037 82.946 257.992 83.168 257.992 83.462C257.992 83.756 258.037 83.978 258.127 84.128C258.223 84.278 258.352 84.353 258.514 84.353C258.742 84.353 258.895 84.221 258.973 83.957H261.088C260.968 84.617 260.68 85.133 260.224 85.505C259.774 85.877 259.219 86.063 258.559 86.063C258.055 86.063 257.605 85.958 257.209 85.748C256.819 85.538 256.513 85.238 256.291 84.848C256.075 84.452 255.967 83.99 255.967 83.462ZM267.094 80.924V86H265.096V85.226C264.94 85.466 264.73 85.661 264.466 85.811C264.208 85.961 263.899 86.036 263.539 86.036C262.957 86.036 262.501 85.841 262.171 85.451C261.847 85.061 261.685 84.533 261.685 83.867V80.924H263.674V83.615C263.674 83.855 263.737 84.047 263.863 84.191C263.995 84.329 264.169 84.398 264.385 84.398C264.607 84.398 264.781 84.329 264.907 84.191C265.033 84.047 265.096 83.855 265.096 83.615V80.924H267.094ZM270.256 86.063C269.776 86.063 269.35 85.985 268.978 85.829C268.612 85.673 268.321 85.457 268.105 85.181C267.889 84.905 267.766 84.593 267.736 84.245H269.653C269.677 84.395 269.74 84.506 269.842 84.578C269.95 84.65 270.085 84.686 270.247 84.686C270.349 84.686 270.43 84.665 270.49 84.623C270.55 84.575 270.58 84.518 270.58 84.452C270.58 84.338 270.517 84.257 270.391 84.209C270.265 84.161 270.052 84.107 269.752 84.047C269.386 83.975 269.083 83.897 268.843 83.813C268.609 83.729 268.402 83.585 268.222 83.381C268.048 83.177 267.961 82.895 267.961 82.535C267.961 82.223 268.042 81.941 268.204 81.689C268.372 81.431 268.618 81.23 268.942 81.086C269.266 80.936 269.659 80.861 270.121 80.861C270.805 80.861 271.339 81.029 271.723 81.365C272.113 81.701 272.347 82.139 272.425 82.679H270.652C270.622 82.541 270.559 82.436 270.463 82.364C270.367 82.286 270.238 82.247 270.076 82.247C269.974 82.247 269.896 82.268 269.842 82.31C269.788 82.346 269.761 82.403 269.761 82.481C269.761 82.583 269.824 82.661 269.95 82.715C270.076 82.763 270.277 82.814 270.553 82.868C270.919 82.94 271.228 83.021 271.48 83.111C271.732 83.201 271.951 83.357 272.137 83.579C272.323 83.795 272.416 84.095 272.416 84.479C272.416 84.779 272.329 85.049 272.155 85.289C271.981 85.529 271.729 85.718 271.399 85.856C271.075 85.994 270.694 86.063 270.256 86.063ZM277.15 86.063C276.64 86.063 276.181 85.958 275.773 85.748C275.365 85.538 275.044 85.238 274.81 84.848C274.582 84.452 274.468 83.99 274.468 83.462C274.468 82.934 274.582 82.475 274.81 82.085C275.044 81.689 275.365 81.386 275.773 81.176C276.181 80.966 276.64 80.861 277.15 80.861C277.66 80.861 278.119 80.966 278.527 81.176C278.935 81.386 279.253 81.689 279.481 82.085C279.715 82.475 279.832 82.934 279.832 83.462C279.832 83.99 279.715 84.452 279.481 84.848C279.253 85.238 278.935 85.538 278.527 85.748C278.119 85.958 277.66 86.063 277.15 86.063ZM277.15 84.335C277.336 84.335 277.492 84.263 277.618 84.119C277.744 83.969 277.807 83.75 277.807 83.462C277.807 83.174 277.744 82.958 277.618 82.814C277.492 82.664 277.336 82.589 277.15 82.589C276.964 82.589 276.808 82.664 276.682 82.814C276.556 82.958 276.493 83.174 276.493 83.462C276.493 83.75 276.553 83.969 276.673 84.119C276.799 84.263 276.958 84.335 277.15 84.335ZM284.015 80.888C284.597 80.888 285.05 81.083 285.374 81.473C285.704 81.863 285.869 82.391 285.869 83.057V86H283.88V83.309C283.88 83.069 283.814 82.88 283.682 82.742C283.556 82.598 283.385 82.526 283.169 82.526C282.947 82.526 282.773 82.598 282.647 82.742C282.521 82.88 282.458 83.069 282.458 83.309V86H280.46V80.924H282.458V81.698C282.614 81.458 282.821 81.263 283.079 81.113C283.343 80.963 283.655 80.888 284.015 80.888ZM288.084 82.805C288.084 82.175 288.21 81.614 288.462 81.122C288.72 80.63 289.086 80.249 289.56 79.979C290.034 79.703 290.592 79.565 291.234 79.565C291.786 79.565 292.278 79.67 292.71 79.88C293.148 80.084 293.502 80.375 293.772 80.753C294.048 81.131 294.231 81.572 294.321 82.076H292.215C292.119 81.866 291.981 81.704 291.801 81.59C291.627 81.47 291.426 81.41 291.198 81.41C290.862 81.41 290.595 81.536 290.397 81.788C290.205 82.04 290.109 82.379 290.109 82.805C290.109 83.231 290.205 83.57 290.397 83.822C290.595 84.074 290.862 84.2 291.198 84.2C291.426 84.2 291.627 84.143 291.801 84.029C291.981 83.909 292.119 83.744 292.215 83.534H294.321C294.231 84.038 294.048 84.479 293.772 84.857C293.502 85.235 293.148 85.529 292.71 85.739C292.278 85.943 291.786 86.045 291.234 86.045C290.592 86.045 290.034 85.91 289.56 85.64C289.086 85.364 288.72 84.98 288.462 84.488C288.21 83.996 288.084 83.435 288.084 82.805ZM297.039 81.86C297.243 81.566 297.492 81.332 297.786 81.158C298.08 80.978 298.386 80.888 298.704 80.888V83.021H298.137C297.759 83.021 297.48 83.087 297.3 83.219C297.126 83.351 297.039 83.585 297.039 83.921V86H295.041V80.924H297.039V81.86ZM300.25 80.519C299.902 80.519 299.623 80.426 299.413 80.24C299.203 80.054 299.098 79.82 299.098 79.538C299.098 79.25 299.203 79.013 299.413 78.827C299.623 78.635 299.902 78.539 300.25 78.539C300.592 78.539 300.868 78.635 301.078 78.827C301.288 79.013 301.393 79.25 301.393 79.538C301.393 79.82 301.288 80.054 301.078 80.24C300.868 80.426 300.592 80.519 300.25 80.519ZM301.24 80.924V86H299.242V80.924H301.24ZM308.919 80.888C309.567 80.888 310.068 81.083 310.422 81.473C310.782 81.863 310.962 82.391 310.962 83.057V86H308.973V83.309C308.973 83.093 308.907 82.925 308.775 82.805C308.649 82.679 308.478 82.616 308.262 82.616C308.04 82.616 307.866 82.679 307.74 82.805C307.614 82.925 307.551 83.093 307.551 83.309V86H305.562V83.309C305.562 83.093 305.496 82.925 305.364 82.805C305.238 82.679 305.067 82.616 304.851 82.616C304.629 82.616 304.455 82.679 304.329 82.805C304.203 82.925 304.14 83.093 304.14 83.309V86H302.142V80.924H304.14V81.608C304.284 81.392 304.479 81.218 304.725 81.086C304.977 80.954 305.271 80.888 305.607 80.888C305.973 80.888 306.297 80.969 306.579 81.131C306.861 81.287 307.086 81.509 307.254 81.797C307.44 81.533 307.677 81.317 307.965 81.149C308.253 80.975 308.571 80.888 308.919 80.888ZM316.742 83.417C316.742 83.555 316.733 83.687 316.715 83.813H313.502C313.532 84.251 313.715 84.47 314.051 84.47C314.267 84.47 314.423 84.371 314.519 84.173H316.634C316.562 84.533 316.409 84.857 316.175 85.145C315.947 85.427 315.656 85.652 315.302 85.82C314.954 85.982 314.57 86.063 314.15 86.063C313.646 86.063 313.196 85.958 312.8 85.748C312.41 85.538 312.104 85.238 311.882 84.848C311.666 84.452 311.558 83.99 311.558 83.462C311.558 82.934 311.666 82.475 311.882 82.085C312.104 81.689 312.41 81.386 312.8 81.176C313.196 80.966 313.646 80.861 314.15 80.861C314.654 80.861 315.101 80.966 315.491 81.176C315.887 81.38 316.193 81.674 316.409 82.058C316.631 82.442 316.742 82.895 316.742 83.417ZM314.717 82.94C314.717 82.772 314.663 82.646 314.555 82.562C314.447 82.472 314.312 82.427 314.15 82.427C313.796 82.427 313.589 82.598 313.529 82.94H314.717ZM322.809 81.806C322.731 81.68 322.62 81.584 322.476 81.518C322.332 81.446 322.158 81.41 321.954 81.41C321.57 81.41 321.273 81.536 321.063 81.788C320.853 82.034 320.748 82.373 320.748 82.805C320.748 83.303 320.865 83.675 321.099 83.921C321.333 84.167 321.693 84.29 322.179 84.29C322.641 84.29 323.013 84.104 323.295 83.732H321.702V82.319H324.951V84.317C324.675 84.791 324.294 85.199 323.808 85.541C323.322 85.877 322.707 86.045 321.963 86.045C321.303 86.045 320.727 85.91 320.235 85.64C319.749 85.364 319.374 84.98 319.11 84.488C318.852 83.996 318.723 83.435 318.723 82.805C318.723 82.175 318.852 81.614 319.11 81.122C319.374 80.63 319.749 80.249 320.235 79.979C320.721 79.703 321.291 79.565 321.945 79.565C322.779 79.565 323.457 79.766 323.979 80.168C324.507 80.57 324.819 81.116 324.915 81.806H322.809ZM327.669 81.86C327.873 81.566 328.122 81.332 328.416 81.158C328.71 80.978 329.016 80.888 329.334 80.888V83.021H328.767C328.389 83.021 328.11 83.087 327.93 83.219C327.756 83.351 327.669 83.585 327.669 83.921V86H325.671V80.924H327.669V81.86ZM329.602 83.462C329.602 82.928 329.692 82.466 329.872 82.076C330.058 81.68 330.31 81.38 330.628 81.176C330.946 80.966 331.303 80.861 331.699 80.861C332.029 80.861 332.314 80.93 332.554 81.068C332.794 81.2 332.977 81.383 333.103 81.617V80.924H335.092V86H333.103V85.307C332.977 85.541 332.794 85.727 332.554 85.865C332.314 85.997 332.029 86.063 331.699 86.063C331.303 86.063 330.946 85.961 330.628 85.757C330.31 85.547 330.058 85.247 329.872 84.857C329.692 84.461 329.602 83.996 329.602 83.462ZM333.103 83.462C333.103 83.192 333.034 82.982 332.896 82.832C332.758 82.682 332.581 82.607 332.365 82.607C332.149 82.607 331.972 82.682 331.834 82.832C331.696 82.982 331.627 83.192 331.627 83.462C331.627 83.732 331.696 83.942 331.834 84.092C331.972 84.242 332.149 84.317 332.365 84.317C332.581 84.317 332.758 84.242 332.896 84.092C333.034 83.942 333.103 83.732 333.103 83.462ZM337.987 81.617C338.113 81.383 338.293 81.2 338.527 81.068C338.767 80.93 339.052 80.861 339.382 80.861C339.778 80.861 340.135 80.966 340.453 81.176C340.771 81.38 341.02 81.68 341.2 82.076C341.386 82.466 341.479 82.928 341.479 83.462C341.479 83.996 341.386 84.461 341.2 84.857C341.02 85.247 340.771 85.547 340.453 85.757C340.135 85.961 339.778 86.063 339.382 86.063C339.052 86.063 338.767 85.997 338.527 85.865C338.293 85.727 338.113 85.541 337.987 85.307V88.43H335.989V80.924H337.987V81.617ZM339.454 83.462C339.454 83.192 339.385 82.982 339.247 82.832C339.109 82.682 338.932 82.607 338.716 82.607C338.5 82.607 338.323 82.682 338.185 82.832C338.047 82.982 337.978 83.192 337.978 83.462C337.978 83.732 338.047 83.942 338.185 84.092C338.323 84.242 338.5 84.317 338.716 84.317C338.932 84.317 339.109 84.242 339.247 84.092C339.385 83.942 339.454 83.732 339.454 83.462ZM345.661 80.888C346.243 80.888 346.696 81.083 347.02 81.473C347.35 81.863 347.515 82.391 347.515 83.057V86H345.526V83.309C345.526 83.069 345.46 82.88 345.328 82.742C345.202 82.598 345.031 82.526 344.815 82.526C344.593 82.526 344.419 82.598 344.293 82.742C344.167 82.88 344.104 83.069 344.104 83.309V86H342.106V79.34H344.104V81.698C344.26 81.458 344.467 81.263 344.725 81.113C344.989 80.963 345.301 80.888 345.661 80.888Z" fill="white"/>
<defs>
<filter id="filter0_f_38_87" x="78.9121" y="38.3704" width="461.654" height="143.15" filterUnits="userSpaceOnUse" color-interpolation-filters="sRGB">
<feFlood flood-opacity="0" result="BackgroundImageFix"/>
<feBlend mode="normal" in="SourceGraphic" in2="BackgroundImageFix" result="shape"/>
<feGaussianBlur stdDeviation="6" result="effect1_foregroundBlur_38_87"/>
</filter>
<filter id="filter1_f_38_87" x="116.768" y="32.8518" width="159.436" height="116.259" filterUnits="userSpaceOnUse" color-interpolation-filters="sRGB">
<feFlood flood-opacity="0" result="BackgroundImageFix"/>
<feBlend mode="normal" in="SourceGraphic" in2="BackgroundImageFix" result="shape"/>
<feGaussianBlur stdDeviation="16" result="effect1_foregroundBlur_38_87"/>
</filter>
<filter id="filter2_f_38_87" x="177.709" y="13.9629" width="159.436" height="116.259" filterUnits="userSpaceOnUse" color-interpolation-filters="sRGB">
<feFlood flood-opacity="0" result="BackgroundImageFix"/>
<feBlend mode="normal" in="SourceGraphic" in2="BackgroundImageFix" result="shape"/>
<feGaussianBlur stdDeviation="16" result="effect1_foregroundBlur_38_87"/>
</filter>
<linearGradient id="paint0_linear_38_87" x1="443.136" y1="93.0652" x2="445.931" y2="125.633" gradientUnits="userSpaceOnUse">
<stop offset="0.223" stop-color="#43E7B0"/>
<stop offset="0.9439" stop-color="#4386F5"/>
</linearGradient>
<linearGradient id="paint1_linear_38_87" x1="384.482" y1="74.2963" x2="308.013" y2="133.259" gradientUnits="userSpaceOnUse">
<stop stop-color="#1A56DB"/>
<stop offset="1" stop-color="#1A56DB" stop-opacity="0.34"/>
</linearGradient>
<linearGradient id="paint2_linear_38_87" x1="148.768" y1="64.8518" x2="244.571" y2="65.5352" gradientUnits="userSpaceOnUse">
<stop stop-color="#005DFF"/>
<stop offset="0.442708" stop-color="#00A3FF"/>
<stop offset="1" stop-color="#21DDFF"/>
</linearGradient>
<linearGradient id="paint3_linear_38_87" x1="0" y1="0" x2="95.8035" y2="0.683423" gradientUnits="userSpaceOnUse">
<stop stop-color="#005DFF"/>
<stop offset="0.442708" stop-color="#00A3FF"/>
<stop offset="1" stop-color="#21DDFF"/>
</linearGradient>
<clipPath id="clip0_38_87">
<rect width="82.5457" height="20.1481" fill="white" transform="translate(432.245 95.7036)"/>
</clipPath>
</defs>
</svg>
