<svg width="189" height="10" viewBox="0 0 189 10" fill="none" xmlns="http://www.w3.org/2000/svg">
<path d="M3.654 7L2.457 4.714H2.448V7H0.45V0.628H3.42C3.936 0.628 4.377 0.721 4.743 0.907C5.109 1.087 5.382 1.336 5.562 1.654C5.748 1.966 5.841 2.32 5.841 2.716C5.841 3.142 5.721 3.52 5.481 3.85C5.247 4.18 4.908 4.417 4.464 4.561L5.85 7H3.654ZM2.448 3.382H3.24C3.432 3.382 3.576 3.34 3.672 3.256C3.768 3.166 3.816 3.028 3.816 2.842C3.816 2.674 3.765 2.542 3.663 2.446C3.567 2.35 3.426 2.302 3.24 2.302H2.448V3.382ZM11.3933 4.417C11.3933 4.555 11.3843 4.687 11.3663 4.813H8.1533C8.1833 5.251 8.3663 5.47 8.7023 5.47C8.9183 5.47 9.0743 5.371 9.1703 5.173H11.2853C11.2133 5.533 11.0603 5.857 10.8263 6.145C10.5983 6.427 10.3073 6.652 9.9533 6.82C9.6053 6.982 9.2213 7.063 8.8013 7.063C8.2973 7.063 7.8473 6.958 7.4513 6.748C7.0613 6.538 6.7553 6.238 6.5333 5.848C6.3173 5.452 6.2093 4.99 6.2093 4.462C6.2093 3.934 6.3173 3.475 6.5333 3.085C6.7553 2.689 7.0613 2.386 7.4513 2.176C7.8473 1.966 8.2973 1.861 8.8013 1.861C9.3053 1.861 9.7523 1.966 10.1423 2.176C10.5383 2.38 10.8443 2.674 11.0603 3.058C11.2823 3.442 11.3933 3.895 11.3933 4.417ZM9.3683 3.94C9.3683 3.772 9.3143 3.646 9.2063 3.562C9.0983 3.472 8.9633 3.427 8.8013 3.427C8.4473 3.427 8.2403 3.598 8.1803 3.94H9.3683ZM14.0232 2.617C14.1492 2.383 14.3292 2.2 14.5632 2.068C14.8032 1.93 15.0882 1.861 15.4182 1.861C15.8142 1.861 16.1712 1.966 16.4892 2.176C16.8072 2.38 17.0562 2.68 17.2362 3.076C17.4222 3.466 17.5152 3.928 17.5152 4.462C17.5152 4.996 17.4222 5.461 17.2362 5.857C17.0562 6.247 16.8072 6.547 16.4892 6.757C16.1712 6.961 15.8142 7.063 15.4182 7.063C15.0882 7.063 14.8032 6.997 14.5632 6.865C14.3292 6.727 14.1492 6.541 14.0232 6.307V9.43H12.0252V1.924H14.0232V2.617ZM15.4902 4.462C15.4902 4.192 15.4212 3.982 15.2832 3.832C15.1452 3.682 14.9682 3.607 14.7522 3.607C14.5362 3.607 14.3592 3.682 14.2212 3.832C14.0832 3.982 14.0142 4.192 14.0142 4.462C14.0142 4.732 14.0832 4.942 14.2212 5.092C14.3592 5.242 14.5362 5.317 14.7522 5.317C14.9682 5.317 15.1452 5.242 15.2832 5.092C15.4212 4.942 15.4902 4.732 15.4902 4.462ZM20.5544 7.063C20.0444 7.063 19.5854 6.958 19.1774 6.748C18.7694 6.538 18.4484 6.238 18.2144 5.848C17.9864 5.452 17.8724 4.99 17.8724 4.462C17.8724 3.934 17.9864 3.475 18.2144 3.085C18.4484 2.689 18.7694 2.386 19.1774 2.176C19.5854 1.966 20.0444 1.861 20.5544 1.861C21.0644 1.861 21.5234 1.966 21.9314 2.176C22.3394 2.386 22.6574 2.689 22.8854 3.085C23.1194 3.475 23.2364 3.934 23.2364 4.462C23.2364 4.99 23.1194 5.452 22.8854 5.848C22.6574 6.238 22.3394 6.538 21.9314 6.748C21.5234 6.958 21.0644 7.063 20.5544 7.063ZM20.5544 5.335C20.7404 5.335 20.8964 5.263 21.0224 5.119C21.1484 4.969 21.2114 4.75 21.2114 4.462C21.2114 4.174 21.1484 3.958 21.0224 3.814C20.8964 3.664 20.7404 3.589 20.5544 3.589C20.3684 3.589 20.2124 3.664 20.0864 3.814C19.9604 3.958 19.8974 4.174 19.8974 4.462C19.8974 4.75 19.9574 4.969 20.0774 5.119C20.2034 5.263 20.3624 5.335 20.5544 5.335ZM25.8621 2.86C26.0661 2.566 26.3151 2.332 26.6091 2.158C26.9031 1.978 27.2091 1.888 27.5271 1.888V4.021H26.9601C26.5821 4.021 26.3031 4.087 26.1231 4.219C25.9491 4.351 25.8621 4.585 25.8621 4.921V7H23.8641V1.924H25.8621V2.86ZM31.2242 5.299V7H30.4682C29.0762 7 28.3802 6.307 28.3802 4.921V3.589H27.7502V1.924H28.3802V0.7H30.3782V1.924H31.2062V3.589H30.3782V4.957C30.3782 5.077 30.4052 5.164 30.4592 5.218C30.5192 5.272 30.6152 5.299 30.7472 5.299H31.2242ZM37.4205 2.806C37.3425 2.68 37.2315 2.584 37.0875 2.518C36.9435 2.446 36.7695 2.41 36.5655 2.41C36.1815 2.41 35.8845 2.536 35.6745 2.788C35.4645 3.034 35.3595 3.373 35.3595 3.805C35.3595 4.303 35.4765 4.675 35.7105 4.921C35.9445 5.167 36.3045 5.29 36.7905 5.29C37.2525 5.29 37.6245 5.104 37.9065 4.732H36.3135V3.319H39.5625V5.317C39.2865 5.791 38.9055 6.199 38.4195 6.541C37.9335 6.877 37.3185 7.045 36.5745 7.045C35.9145 7.045 35.3385 6.91 34.8465 6.64C34.3605 6.364 33.9855 5.98 33.7215 5.488C33.4635 4.996 33.3345 4.435 33.3345 3.805C33.3345 3.175 33.4635 2.614 33.7215 2.122C33.9855 1.63 34.3605 1.249 34.8465 0.979C35.3325 0.703 35.9025 0.565 36.5565 0.565C37.3905 0.565 38.0685 0.766 38.5905 1.168C39.1185 1.57 39.4305 2.116 39.5265 2.806H37.4205ZM45.196 4.417C45.196 4.555 45.187 4.687 45.169 4.813H41.956C41.986 5.251 42.169 5.47 42.505 5.47C42.721 5.47 42.877 5.371 42.973 5.173H45.088C45.016 5.533 44.863 5.857 44.629 6.145C44.401 6.427 44.11 6.652 43.756 6.82C43.408 6.982 43.024 7.063 42.604 7.063C42.1 7.063 41.65 6.958 41.254 6.748C40.864 6.538 40.558 6.238 40.336 5.848C40.12 5.452 40.012 4.99 40.012 4.462C40.012 3.934 40.12 3.475 40.336 3.085C40.558 2.689 40.864 2.386 41.254 2.176C41.65 1.966 42.1 1.861 42.604 1.861C43.108 1.861 43.555 1.966 43.945 2.176C44.341 2.38 44.647 2.674 44.863 3.058C45.085 3.442 45.196 3.895 45.196 4.417ZM43.171 3.94C43.171 3.772 43.117 3.646 43.009 3.562C42.901 3.472 42.766 3.427 42.604 3.427C42.25 3.427 42.043 3.598 41.983 3.94H43.171ZM49.3829 1.888C49.9649 1.888 50.4179 2.083 50.7419 2.473C51.0719 2.863 51.2369 3.391 51.2369 4.057V7H49.2479V4.309C49.2479 4.069 49.1819 3.88 49.0499 3.742C48.9239 3.598 48.7529 3.526 48.5369 3.526C48.3149 3.526 48.1409 3.598 48.0149 3.742C47.8889 3.88 47.8259 4.069 47.8259 4.309V7H45.8279V1.924H47.8259V2.698C47.9819 2.458 48.1889 2.263 48.4469 2.113C48.7109 1.963 49.0229 1.888 49.3829 1.888ZM57.0173 4.417C57.0173 4.555 57.0083 4.687 56.9903 4.813H53.7773C53.8073 5.251 53.9903 5.47 54.3263 5.47C54.5423 5.47 54.6983 5.371 54.7943 5.173H56.9093C56.8373 5.533 56.6843 5.857 56.4503 6.145C56.2223 6.427 55.9313 6.652 55.5773 6.82C55.2293 6.982 54.8453 7.063 54.4253 7.063C53.9213 7.063 53.4713 6.958 53.0753 6.748C52.6853 6.538 52.3793 6.238 52.1573 5.848C51.9413 5.452 51.8333 4.99 51.8333 4.462C51.8333 3.934 51.9413 3.475 52.1573 3.085C52.3793 2.689 52.6853 2.386 53.0753 2.176C53.4713 1.966 53.9213 1.861 54.4253 1.861C54.9293 1.861 55.3763 1.966 55.7663 2.176C56.1623 2.38 56.4683 2.674 56.6843 3.058C56.9063 3.442 57.0173 3.895 57.0173 4.417ZM54.9923 3.94C54.9923 3.772 54.9383 3.646 54.8303 3.562C54.7223 3.472 54.5873 3.427 54.4253 3.427C54.0713 3.427 53.8643 3.598 53.8043 3.94H54.9923ZM59.6472 2.86C59.8512 2.566 60.1002 2.332 60.3942 2.158C60.6882 1.978 60.9942 1.888 61.3122 1.888V4.021H60.7452C60.3672 4.021 60.0882 4.087 59.9082 4.219C59.7342 4.351 59.6472 4.585 59.6472 4.921V7H57.6492V1.924H59.6472V2.86ZM66.7644 4.417C66.7644 4.555 66.7554 4.687 66.7374 4.813H63.5244C63.5544 5.251 63.7374 5.47 64.0734 5.47C64.2894 5.47 64.4454 5.371 64.5414 5.173H66.6564C66.5844 5.533 66.4314 5.857 66.1974 6.145C65.9694 6.427 65.6784 6.652 65.3244 6.82C64.9764 6.982 64.5924 7.063 64.1724 7.063C63.6684 7.063 63.2184 6.958 62.8224 6.748C62.4324 6.538 62.1264 6.238 61.9044 5.848C61.6884 5.452 61.5804 4.99 61.5804 4.462C61.5804 3.934 61.6884 3.475 61.9044 3.085C62.1264 2.689 62.4324 2.386 62.8224 2.176C63.2184 1.966 63.6684 1.861 64.1724 1.861C64.6764 1.861 65.1234 1.966 65.5134 2.176C65.9094 2.38 66.2154 2.674 66.4314 3.058C66.6534 3.442 66.7644 3.895 66.7644 4.417ZM64.7394 3.94C64.7394 3.772 64.6854 3.646 64.5774 3.562C64.4694 3.472 64.3344 3.427 64.1724 3.427C63.8184 3.427 63.6114 3.598 63.5514 3.94H64.7394ZM70.5553 5.299V7H69.7993C68.4073 7 67.7113 6.307 67.7113 4.921V3.589H67.0813V1.924H67.7113V0.7H69.7093V1.924H70.5373V3.589H69.7093V4.957C69.7093 5.077 69.7363 5.164 69.7903 5.218C69.8503 5.272 69.9463 5.299 70.0783 5.299H70.5553ZM76.2302 4.417C76.2302 4.555 76.2212 4.687 76.2032 4.813H72.9902C73.0202 5.251 73.2032 5.47 73.5392 5.47C73.7552 5.47 73.9112 5.371 74.0072 5.173H76.1222C76.0502 5.533 75.8972 5.857 75.6632 6.145C75.4352 6.427 75.1442 6.652 74.7902 6.82C74.4422 6.982 74.0582 7.063 73.6382 7.063C73.1342 7.063 72.6842 6.958 72.2882 6.748C71.8982 6.538 71.5922 6.238 71.3702 5.848C71.1542 5.452 71.0462 4.99 71.0462 4.462C71.0462 3.934 71.1542 3.475 71.3702 3.085C71.5922 2.689 71.8982 2.386 72.2882 2.176C72.6842 1.966 73.1342 1.861 73.6382 1.861C74.1422 1.861 74.5892 1.966 74.9792 2.176C75.3752 2.38 75.6812 2.674 75.8972 3.058C76.1192 3.442 76.2302 3.895 76.2302 4.417ZM74.2052 3.94C74.2052 3.772 74.1512 3.646 74.0432 3.562C73.9352 3.472 73.8002 3.427 73.6382 3.427C73.2842 3.427 73.0772 3.598 73.0172 3.94H74.2052ZM76.5921 4.462C76.5921 3.928 76.6821 3.466 76.8621 3.076C77.0481 2.68 77.3001 2.38 77.6181 2.176C77.9361 1.966 78.2931 1.861 78.6891 1.861C79.0191 1.861 79.3011 1.93 79.5351 2.068C79.7751 2.2 79.9581 2.383 80.0841 2.617V0.34H82.0821V7H80.0841V6.307C79.9581 6.541 79.7751 6.727 79.5351 6.865C79.3011 6.997 79.0191 7.063 78.6891 7.063C78.2931 7.063 77.9361 6.961 77.6181 6.757C77.3001 6.547 77.0481 6.247 76.8621 5.857C76.6821 5.461 76.5921 4.996 76.5921 4.462ZM80.0931 4.462C80.0931 4.192 80.0241 3.982 79.8861 3.832C79.7481 3.682 79.5711 3.607 79.3551 3.607C79.1391 3.607 78.9621 3.682 78.8241 3.832C78.6861 3.982 78.6171 4.192 78.6171 4.462C78.6171 4.732 78.6861 4.942 78.8241 5.092C78.9621 5.242 79.1391 5.317 79.3551 5.317C79.5711 5.317 79.7481 5.242 79.8861 5.092C80.0241 4.942 80.0931 4.732 80.0931 4.462ZM86.9206 7.063C86.4106 7.063 85.9516 6.958 85.5436 6.748C85.1356 6.538 84.8146 6.238 84.5806 5.848C84.3526 5.452 84.2386 4.99 84.2386 4.462C84.2386 3.934 84.3526 3.475 84.5806 3.085C84.8146 2.689 85.1356 2.386 85.5436 2.176C85.9516 1.966 86.4106 1.861 86.9206 1.861C87.4306 1.861 87.8896 1.966 88.2976 2.176C88.7056 2.386 89.0236 2.689 89.2516 3.085C89.4856 3.475 89.6026 3.934 89.6026 4.462C89.6026 4.99 89.4856 5.452 89.2516 5.848C89.0236 6.238 88.7056 6.538 88.2976 6.748C87.8896 6.958 87.4306 7.063 86.9206 7.063ZM86.9206 5.335C87.1066 5.335 87.2626 5.263 87.3886 5.119C87.5146 4.969 87.5776 4.75 87.5776 4.462C87.5776 4.174 87.5146 3.958 87.3886 3.814C87.2626 3.664 87.1066 3.589 86.9206 3.589C86.7346 3.589 86.5786 3.664 86.4526 3.814C86.3266 3.958 86.2636 4.174 86.2636 4.462C86.2636 4.75 86.3236 4.969 86.4436 5.119C86.5696 5.263 86.7286 5.335 86.9206 5.335ZM93.7853 1.888C94.3673 1.888 94.8203 2.083 95.1443 2.473C95.4743 2.863 95.6393 3.391 95.6393 4.057V7H93.6503V4.309C93.6503 4.069 93.5843 3.88 93.4523 3.742C93.3263 3.598 93.1553 3.526 92.9393 3.526C92.7173 3.526 92.5433 3.598 92.4173 3.742C92.2913 3.88 92.2283 4.069 92.2283 4.309V7H90.2303V1.924H92.2283V2.698C92.3843 2.458 92.5913 2.263 92.8493 2.113C93.1133 1.963 93.4253 1.888 93.7853 1.888ZM100.528 7.063C99.766 7.063 99.136 6.886 98.638 6.532C98.146 6.172 97.879 5.647 97.837 4.957H99.961C99.991 5.323 100.153 5.506 100.447 5.506C100.555 5.506 100.645 5.482 100.717 5.434C100.795 5.38 100.834 5.299 100.834 5.191C100.834 5.041 100.753 4.921 100.591 4.831C100.429 4.735 100.177 4.627 99.835 4.507C99.427 4.363 99.088 4.222 98.818 4.084C98.554 3.946 98.326 3.745 98.134 3.481C97.942 3.217 97.849 2.878 97.855 2.464C97.855 2.05 97.96 1.699 98.17 1.411C98.386 1.117 98.677 0.895 99.043 0.745C99.415 0.595 99.832 0.52 100.294 0.52C101.074 0.52 101.692 0.7 102.148 1.06C102.61 1.42 102.853 1.927 102.877 2.581H100.726C100.72 2.401 100.675 2.272 100.591 2.194C100.507 2.116 100.405 2.077 100.285 2.077C100.201 2.077 100.132 2.107 100.078 2.167C100.024 2.221 99.997 2.299 99.997 2.401C99.997 2.545 100.075 2.665 100.231 2.761C100.393 2.851 100.648 2.962 100.996 3.094C101.398 3.244 101.728 3.388 101.986 3.526C102.25 3.664 102.478 3.856 102.67 4.102C102.862 4.348 102.958 4.657 102.958 5.029C102.958 5.419 102.862 5.77 102.67 6.082C102.478 6.388 102.199 6.628 101.833 6.802C101.467 6.976 101.032 7.063 100.528 7.063ZM108.574 4.417C108.574 4.555 108.565 4.687 108.547 4.813H105.334C105.364 5.251 105.547 5.47 105.883 5.47C106.099 5.47 106.255 5.371 106.351 5.173H108.466C108.394 5.533 108.241 5.857 108.007 6.145C107.779 6.427 107.488 6.652 107.134 6.82C106.786 6.982 106.402 7.063 105.982 7.063C105.478 7.063 105.028 6.958 104.632 6.748C104.242 6.538 103.936 6.238 103.714 5.848C103.498 5.452 103.39 4.99 103.39 4.462C103.39 3.934 103.498 3.475 103.714 3.085C103.936 2.689 104.242 2.386 104.632 2.176C105.028 1.966 105.478 1.861 105.982 1.861C106.486 1.861 106.933 1.966 107.323 2.176C107.719 2.38 108.025 2.674 108.241 3.058C108.463 3.442 108.574 3.895 108.574 4.417ZM106.549 3.94C106.549 3.772 106.495 3.646 106.387 3.562C106.279 3.472 106.144 3.427 105.982 3.427C105.628 3.427 105.421 3.598 105.361 3.94H106.549ZM111.204 2.617C111.33 2.383 111.51 2.2 111.744 2.068C111.984 1.93 112.269 1.861 112.599 1.861C112.995 1.861 113.352 1.966 113.67 2.176C113.988 2.38 114.237 2.68 114.417 3.076C114.603 3.466 114.696 3.928 114.696 4.462C114.696 4.996 114.603 5.461 114.417 5.857C114.237 6.247 113.988 6.547 113.67 6.757C113.352 6.961 112.995 7.063 112.599 7.063C112.269 7.063 111.984 6.997 111.744 6.865C111.51 6.727 111.33 6.541 111.204 6.307V9.43H109.206V1.924H111.204V2.617ZM112.671 4.462C112.671 4.192 112.602 3.982 112.464 3.832C112.326 3.682 112.149 3.607 111.933 3.607C111.717 3.607 111.54 3.682 111.402 3.832C111.264 3.982 111.195 4.192 111.195 4.462C111.195 4.732 111.264 4.942 111.402 5.092C111.54 5.242 111.717 5.317 111.933 5.317C112.149 5.317 112.326 5.242 112.464 5.092C112.602 4.942 112.671 4.732 112.671 4.462ZM118.482 5.299V7H117.726C116.334 7 115.638 6.307 115.638 4.921V3.589H115.008V1.924H115.638V0.7H117.636V1.924H118.464V3.589H117.636V4.957C117.636 5.077 117.663 5.164 117.717 5.218C117.777 5.272 117.873 5.299 118.005 5.299H118.482ZM124.157 4.417C124.157 4.555 124.148 4.687 124.13 4.813H120.917C120.947 5.251 121.13 5.47 121.466 5.47C121.682 5.47 121.838 5.371 121.934 5.173H124.049C123.977 5.533 123.824 5.857 123.59 6.145C123.362 6.427 123.071 6.652 122.717 6.82C122.369 6.982 121.985 7.063 121.565 7.063C121.061 7.063 120.611 6.958 120.215 6.748C119.825 6.538 119.519 6.238 119.297 5.848C119.081 5.452 118.973 4.99 118.973 4.462C118.973 3.934 119.081 3.475 119.297 3.085C119.519 2.689 119.825 2.386 120.215 2.176C120.611 1.966 121.061 1.861 121.565 1.861C122.069 1.861 122.516 1.966 122.906 2.176C123.302 2.38 123.608 2.674 123.824 3.058C124.046 3.442 124.157 3.895 124.157 4.417ZM122.132 3.94C122.132 3.772 122.078 3.646 121.97 3.562C121.862 3.472 121.727 3.427 121.565 3.427C121.211 3.427 121.004 3.598 120.944 3.94H122.132ZM131.566 1.888C132.214 1.888 132.715 2.083 133.069 2.473C133.429 2.863 133.609 3.391 133.609 4.057V7H131.62V4.309C131.62 4.093 131.554 3.925 131.422 3.805C131.296 3.679 131.125 3.616 130.909 3.616C130.687 3.616 130.513 3.679 130.387 3.805C130.261 3.925 130.198 4.093 130.198 4.309V7H128.209V4.309C128.209 4.093 128.143 3.925 128.011 3.805C127.885 3.679 127.714 3.616 127.498 3.616C127.276 3.616 127.102 3.679 126.976 3.805C126.85 3.925 126.787 4.093 126.787 4.309V7H124.789V1.924H126.787V2.608C126.931 2.392 127.126 2.218 127.372 2.086C127.624 1.954 127.918 1.888 128.254 1.888C128.62 1.888 128.944 1.969 129.226 2.131C129.508 2.287 129.733 2.509 129.901 2.797C130.087 2.533 130.324 2.317 130.612 2.149C130.9 1.975 131.218 1.888 131.566 1.888ZM136.472 2.617C136.598 2.383 136.778 2.2 137.012 2.068C137.252 1.93 137.537 1.861 137.867 1.861C138.263 1.861 138.62 1.966 138.938 2.176C139.256 2.38 139.505 2.68 139.685 3.076C139.871 3.466 139.964 3.928 139.964 4.462C139.964 4.996 139.871 5.461 139.685 5.857C139.505 6.247 139.256 6.547 138.938 6.757C138.62 6.961 138.263 7.063 137.867 7.063C137.537 7.063 137.252 6.997 137.012 6.865C136.778 6.727 136.598 6.541 136.472 6.307V7H134.474V0.34H136.472V2.617ZM137.939 4.462C137.939 4.192 137.87 3.982 137.732 3.832C137.594 3.682 137.417 3.607 137.201 3.607C136.985 3.607 136.808 3.682 136.67 3.832C136.532 3.982 136.463 4.192 136.463 4.462C136.463 4.732 136.532 4.942 136.67 5.092C136.808 5.242 136.985 5.317 137.201 5.317C137.417 5.317 137.594 5.242 137.732 5.092C137.87 4.942 137.939 4.732 137.939 4.462ZM145.506 4.417C145.506 4.555 145.497 4.687 145.479 4.813H142.266C142.296 5.251 142.479 5.47 142.815 5.47C143.031 5.47 143.187 5.371 143.283 5.173H145.398C145.326 5.533 145.173 5.857 144.939 6.145C144.711 6.427 144.42 6.652 144.066 6.82C143.718 6.982 143.334 7.063 142.914 7.063C142.41 7.063 141.96 6.958 141.564 6.748C141.174 6.538 140.868 6.238 140.646 5.848C140.43 5.452 140.322 4.99 140.322 4.462C140.322 3.934 140.43 3.475 140.646 3.085C140.868 2.689 141.174 2.386 141.564 2.176C141.96 1.966 142.41 1.861 142.914 1.861C143.418 1.861 143.865 1.966 144.255 2.176C144.651 2.38 144.957 2.674 145.173 3.058C145.395 3.442 145.506 3.895 145.506 4.417ZM143.481 3.94C143.481 3.772 143.427 3.646 143.319 3.562C143.211 3.472 143.076 3.427 142.914 3.427C142.56 3.427 142.353 3.598 142.293 3.94H143.481ZM148.136 2.86C148.34 2.566 148.589 2.332 148.883 2.158C149.177 1.978 149.483 1.888 149.801 1.888V4.021H149.234C148.856 4.021 148.577 4.087 148.397 4.219C148.223 4.351 148.136 4.585 148.136 4.921V7H146.138V1.924H148.136V2.86ZM151.67 5.407C152.474 4.807 153.11 4.264 153.578 3.778C154.046 3.286 154.28 2.827 154.28 2.401C154.28 2.257 154.247 2.146 154.181 2.068C154.121 1.99 154.04 1.951 153.938 1.951C153.818 1.951 153.722 2.014 153.65 2.14C153.584 2.26 153.56 2.446 153.578 2.698H151.643C151.661 2.14 151.781 1.681 152.003 1.321C152.231 0.961 152.525 0.697 152.885 0.529C153.245 0.361 153.641 0.277 154.073 0.277C154.841 0.277 155.402 0.463 155.756 0.834999C156.116 1.201 156.296 1.672 156.296 2.248C156.296 2.854 156.101 3.424 155.711 3.958C155.327 4.486 154.844 4.933 154.262 5.299H156.323V6.91H151.67V5.407ZM159.801 2.419C159.765 2.239 159.711 2.107 159.639 2.023C159.573 1.939 159.468 1.897 159.324 1.897C159.096 1.897 158.943 2.014 158.865 2.248C158.793 2.476 158.757 2.833 158.757 3.319C158.865 3.151 159.021 3.019 159.225 2.923C159.429 2.827 159.66 2.779 159.918 2.779C160.494 2.779 160.953 2.956 161.295 3.31C161.643 3.664 161.817 4.177 161.817 4.849C161.817 5.299 161.721 5.692 161.529 6.028C161.343 6.358 161.076 6.613 160.728 6.793C160.38 6.973 159.969 7.063 159.495 7.063C158.553 7.063 157.899 6.775 157.533 6.199C157.167 5.617 156.984 4.804 156.984 3.76C156.984 2.944 157.068 2.284 157.236 1.78C157.404 1.276 157.668 0.904 158.028 0.663999C158.394 0.424 158.868 0.304 159.45 0.304C160.164 0.304 160.701 0.508 161.061 0.915999C161.427 1.324 161.628 1.825 161.664 2.419H159.801ZM159.423 4.309C159.261 4.309 159.132 4.354 159.036 4.444C158.94 4.534 158.892 4.66 158.892 4.822C158.892 5.002 158.937 5.137 159.027 5.227C159.123 5.311 159.255 5.353 159.423 5.353C159.591 5.353 159.72 5.311 159.81 5.227C159.906 5.137 159.954 5.002 159.954 4.822C159.954 4.66 159.906 4.534 159.81 4.444C159.714 4.354 159.585 4.309 159.423 4.309ZM164.803 5.407L163.876 8.08H162.616L163.039 5.407H164.803ZM167.068 5.407C167.872 4.807 168.508 4.264 168.976 3.778C169.444 3.286 169.678 2.827 169.678 2.401C169.678 2.257 169.645 2.146 169.579 2.068C169.519 1.99 169.438 1.951 169.336 1.951C169.216 1.951 169.12 2.014 169.048 2.14C168.982 2.26 168.958 2.446 168.976 2.698H167.041C167.059 2.14 167.179 1.681 167.401 1.321C167.629 0.961 167.923 0.697 168.283 0.529C168.643 0.361 169.039 0.277 169.471 0.277C170.239 0.277 170.8 0.463 171.154 0.834999C171.514 1.201 171.694 1.672 171.694 2.248C171.694 2.854 171.499 3.424 171.109 3.958C170.725 4.486 170.242 4.933 169.66 5.299H171.721V6.91H167.068V5.407ZM172.202 3.616C172.202 2.578 172.421 1.762 172.859 1.168C173.303 0.574 173.984 0.277 174.902 0.277C175.814 0.277 176.492 0.577 176.936 1.177C177.38 1.771 177.602 2.584 177.602 3.616C177.602 4.654 177.38 5.473 176.936 6.073C176.492 6.667 175.814 6.964 174.902 6.964C173.984 6.964 173.303 6.667 172.859 6.073C172.421 5.473 172.202 4.654 172.202 3.616ZM175.631 3.616C175.631 3.136 175.583 2.776 175.487 2.536C175.391 2.29 175.196 2.167 174.902 2.167C174.602 2.167 174.404 2.29 174.308 2.536C174.212 2.776 174.164 3.136 174.164 3.616C174.164 4.102 174.212 4.468 174.308 4.714C174.404 4.954 174.602 5.074 174.902 5.074C175.196 5.074 175.391 4.954 175.487 4.714C175.583 4.468 175.631 4.102 175.631 3.616ZM178.125 5.407C178.929 4.807 179.565 4.264 180.033 3.778C180.501 3.286 180.735 2.827 180.735 2.401C180.735 2.257 180.702 2.146 180.636 2.068C180.576 1.99 180.495 1.951 180.393 1.951C180.273 1.951 180.177 2.014 180.105 2.14C180.039 2.26 180.015 2.446 180.033 2.698H178.098C178.116 2.14 178.236 1.681 178.458 1.321C178.686 0.961 178.98 0.697 179.34 0.529C179.7 0.361 180.096 0.277 180.528 0.277C181.296 0.277 181.857 0.463 182.211 0.834999C182.571 1.201 182.751 1.672 182.751 2.248C182.751 2.854 182.556 3.424 182.166 3.958C181.782 4.486 181.299 4.933 180.717 5.299H182.778V6.91H178.125V5.407ZM183.376 2.482C183.394 1.768 183.601 1.222 183.997 0.844C184.399 0.466 184.966 0.277 185.698 0.277C186.172 0.277 186.577 0.358 186.913 0.52C187.249 0.682 187.501 0.901 187.669 1.177C187.843 1.453 187.93 1.765 187.93 2.113C187.93 2.533 187.831 2.863 187.633 3.103C187.435 3.337 187.213 3.496 186.967 3.58V3.616C187.687 3.886 188.047 4.387 188.047 5.119C188.047 5.503 187.957 5.842 187.777 6.136C187.597 6.43 187.339 6.658 187.003 6.82C186.673 6.982 186.28 7.063 185.824 7.063C185.044 7.063 184.432 6.877 183.988 6.505C183.544 6.133 183.316 5.551 183.304 4.759H185.248C185.236 4.975 185.266 5.14 185.338 5.254C185.416 5.362 185.548 5.416 185.734 5.416C185.842 5.416 185.932 5.377 186.004 5.299C186.076 5.215 186.112 5.107 186.112 4.975C186.112 4.807 186.055 4.681 185.941 4.597C185.833 4.507 185.647 4.462 185.383 4.462H185.05V2.851H185.374C185.782 2.875 185.986 2.713 185.986 2.365C185.986 2.215 185.953 2.104 185.887 2.032C185.827 1.96 185.749 1.924 185.653 1.924C185.431 1.924 185.32 2.11 185.32 2.482H183.376Z" fill="#1463FF"/>
</svg>
