<svg width="184" height="11" viewBox="0 0 184 11" fill="none" xmlns="http://www.w3.org/2000/svg">
<path d="M3.96259 8L2.76559 5.714H2.75659V8H0.758594V1.628H3.72859C4.24459 1.628 4.68559 1.721 5.05159 1.907C5.41759 2.087 5.69059 2.336 5.87059 2.654C6.05659 2.966 6.14959 3.32 6.14959 3.716C6.14959 4.142 6.02959 4.52 5.78959 4.85C5.55559 5.18 5.21659 5.417 4.77259 5.561L6.15859 8H3.96259ZM2.75659 4.382H3.54859C3.74059 4.382 3.88459 4.34 3.98059 4.256C4.07659 4.166 4.12459 4.028 4.12459 3.842C4.12459 3.674 4.07359 3.542 3.97159 3.446C3.87559 3.35 3.73459 3.302 3.54859 3.302H2.75659V4.382ZM11.7019 5.417C11.7019 5.555 11.6929 5.687 11.6749 5.813H8.46189C8.49189 6.251 8.67489 6.47 9.01089 6.47C9.22689 6.47 9.38289 6.371 9.47889 6.173H11.5939C11.5219 6.533 11.3689 6.857 11.1349 7.145C10.9069 7.427 10.6159 7.652 10.2619 7.82C9.91389 7.982 9.52989 8.063 9.10989 8.063C8.60589 8.063 8.15589 7.958 7.75989 7.748C7.36989 7.538 7.06389 7.238 6.84189 6.848C6.62589 6.452 6.51789 5.99 6.51789 5.462C6.51789 4.934 6.62589 4.475 6.84189 4.085C7.06389 3.689 7.36989 3.386 7.75989 3.176C8.15589 2.966 8.60589 2.861 9.10989 2.861C9.61389 2.861 10.0609 2.966 10.4509 3.176C10.8469 3.38 11.1529 3.674 11.3689 4.058C11.5909 4.442 11.7019 4.895 11.7019 5.417ZM9.67689 4.94C9.67689 4.772 9.62289 4.646 9.51489 4.562C9.40689 4.472 9.27189 4.427 9.10989 4.427C8.75589 4.427 8.54889 4.598 8.48889 4.94H9.67689ZM12.0638 5.462C12.0638 4.928 12.1538 4.466 12.3338 4.076C12.5198 3.68 12.7718 3.38 13.0898 3.176C13.4078 2.966 13.7648 2.861 14.1608 2.861C14.4908 2.861 14.7758 2.93 15.0158 3.068C15.2558 3.2 15.4388 3.383 15.5648 3.617V2.924H17.5538V8H15.5648V7.307C15.4388 7.541 15.2558 7.727 15.0158 7.865C14.7758 7.997 14.4908 8.063 14.1608 8.063C13.7648 8.063 13.4078 7.961 13.0898 7.757C12.7718 7.547 12.5198 7.247 12.3338 6.857C12.1538 6.461 12.0638 5.996 12.0638 5.462ZM15.5648 5.462C15.5648 5.192 15.4958 4.982 15.3578 4.832C15.2198 4.682 15.0428 4.607 14.8268 4.607C14.6108 4.607 14.4338 4.682 14.2958 4.832C14.1578 4.982 14.0888 5.192 14.0888 5.462C14.0888 5.732 14.1578 5.942 14.2958 6.092C14.4338 6.242 14.6108 6.317 14.8268 6.317C15.0428 6.317 15.2198 6.242 15.3578 6.092C15.4958 5.942 15.5648 5.732 15.5648 5.462ZM20.449 1.34V8H18.451V1.34H20.449ZM25.4374 7.037H23.3134L22.9984 8H20.9014L23.2324 1.628H25.5364L27.8584 8H25.7524L25.4374 7.037ZM24.9514 5.534L24.3754 3.761L23.7994 5.534H24.9514ZM30.5713 8.063C30.0913 8.063 29.6653 7.985 29.2933 7.829C28.9273 7.673 28.6363 7.457 28.4203 7.181C28.2043 6.905 28.0813 6.593 28.0513 6.245H29.9683C29.9923 6.395 30.0553 6.506 30.1573 6.578C30.2653 6.65 30.4003 6.686 30.5623 6.686C30.6643 6.686 30.7453 6.665 30.8053 6.623C30.8653 6.575 30.8953 6.518 30.8953 6.452C30.8953 6.338 30.8323 6.257 30.7063 6.209C30.5803 6.161 30.3673 6.107 30.0673 6.047C29.7013 5.975 29.3983 5.897 29.1583 5.813C28.9243 5.729 28.7173 5.585 28.5373 5.381C28.3633 5.177 28.2763 4.895 28.2763 4.535C28.2763 4.223 28.3573 3.941 28.5193 3.689C28.6873 3.431 28.9333 3.23 29.2573 3.086C29.5813 2.936 29.9743 2.861 30.4363 2.861C31.1203 2.861 31.6543 3.029 32.0383 3.365C32.4283 3.701 32.6623 4.139 32.7403 4.679H30.9673C30.9373 4.541 30.8743 4.436 30.7783 4.364C30.6823 4.286 30.5533 4.247 30.3913 4.247C30.2893 4.247 30.2113 4.268 30.1573 4.31C30.1033 4.346 30.0763 4.403 30.0763 4.481C30.0763 4.583 30.1393 4.661 30.2653 4.715C30.3913 4.763 30.5923 4.814 30.8683 4.868C31.2343 4.94 31.5433 5.021 31.7953 5.111C32.0473 5.201 32.2663 5.357 32.4523 5.579C32.6383 5.795 32.7313 6.095 32.7313 6.479C32.7313 6.779 32.6443 7.049 32.4703 7.289C32.2963 7.529 32.0443 7.718 31.7143 7.856C31.3903 7.994 31.0093 8.063 30.5713 8.063ZM35.7832 8.063C35.3032 8.063 34.8772 7.985 34.5052 7.829C34.1392 7.673 33.8482 7.457 33.6322 7.181C33.4162 6.905 33.2932 6.593 33.2632 6.245H35.1802C35.2042 6.395 35.2672 6.506 35.3692 6.578C35.4772 6.65 35.6122 6.686 35.7742 6.686C35.8762 6.686 35.9572 6.665 36.0172 6.623C36.0772 6.575 36.1072 6.518 36.1072 6.452C36.1072 6.338 36.0442 6.257 35.9182 6.209C35.7922 6.161 35.5792 6.107 35.2792 6.047C34.9132 5.975 34.6102 5.897 34.3702 5.813C34.1362 5.729 33.9292 5.585 33.7492 5.381C33.5752 5.177 33.4882 4.895 33.4882 4.535C33.4882 4.223 33.5692 3.941 33.7312 3.689C33.8992 3.431 34.1452 3.23 34.4692 3.086C34.7932 2.936 35.1862 2.861 35.6482 2.861C36.3322 2.861 36.8662 3.029 37.2502 3.365C37.6402 3.701 37.8742 4.139 37.9522 4.679H36.1792C36.1492 4.541 36.0862 4.436 35.9902 4.364C35.8942 4.286 35.7652 4.247 35.6032 4.247C35.5012 4.247 35.4232 4.268 35.3692 4.31C35.3152 4.346 35.2882 4.403 35.2882 4.481C35.2882 4.583 35.3512 4.661 35.4772 4.715C35.6032 4.763 35.8042 4.814 36.0802 4.868C36.4462 4.94 36.7552 5.021 37.0072 5.111C37.2592 5.201 37.4782 5.357 37.6642 5.579C37.8502 5.795 37.9432 6.095 37.9432 6.479C37.9432 6.779 37.8562 7.049 37.6822 7.289C37.5082 7.529 37.2562 7.718 36.9262 7.856C36.6022 7.994 36.2212 8.063 35.7832 8.063ZM39.7441 2.519C39.3961 2.519 39.1171 2.426 38.9071 2.24C38.6971 2.054 38.5921 1.82 38.5921 1.538C38.5921 1.25 38.6971 1.013 38.9071 0.827C39.1171 0.635 39.3961 0.538999 39.7441 0.538999C40.0861 0.538999 40.3621 0.635 40.5721 0.827C40.7821 1.013 40.8871 1.25 40.8871 1.538C40.8871 1.82 40.7821 2.054 40.5721 2.24C40.3621 2.426 40.0861 2.519 39.7441 2.519ZM40.7341 2.924V8H38.7361V2.924H40.7341ZM43.8955 8.063C43.4155 8.063 42.9895 7.985 42.6175 7.829C42.2515 7.673 41.9605 7.457 41.7445 7.181C41.5285 6.905 41.4055 6.593 41.3755 6.245H43.2925C43.3165 6.395 43.3795 6.506 43.4815 6.578C43.5895 6.65 43.7245 6.686 43.8865 6.686C43.9885 6.686 44.0695 6.665 44.1295 6.623C44.1895 6.575 44.2195 6.518 44.2195 6.452C44.2195 6.338 44.1565 6.257 44.0305 6.209C43.9045 6.161 43.6915 6.107 43.3915 6.047C43.0255 5.975 42.7225 5.897 42.4825 5.813C42.2485 5.729 42.0415 5.585 41.8615 5.381C41.6875 5.177 41.6005 4.895 41.6005 4.535C41.6005 4.223 41.6815 3.941 41.8435 3.689C42.0115 3.431 42.2575 3.23 42.5815 3.086C42.9055 2.936 43.2985 2.861 43.7605 2.861C44.4445 2.861 44.9785 3.029 45.3625 3.365C45.7525 3.701 45.9865 4.139 46.0645 4.679H44.2915C44.2615 4.541 44.1985 4.436 44.1025 4.364C44.0065 4.286 43.8775 4.247 43.7155 4.247C43.6135 4.247 43.5355 4.268 43.4815 4.31C43.4275 4.346 43.4005 4.403 43.4005 4.481C43.4005 4.583 43.4635 4.661 43.5895 4.715C43.7155 4.763 43.9165 4.814 44.1925 4.868C44.5585 4.94 44.8675 5.021 45.1195 5.111C45.3715 5.201 45.5905 5.357 45.7765 5.579C45.9625 5.795 46.0555 6.095 46.0555 6.479C46.0555 6.779 45.9685 7.049 45.7945 7.289C45.6205 7.529 45.3685 7.718 45.0385 7.856C44.7145 7.994 44.3335 8.063 43.8955 8.063ZM50.0074 6.299V8H49.2514C47.8594 8 47.1634 7.307 47.1634 5.921V4.589H46.5334V2.924H47.1634V1.7H49.1614V2.924H49.9894V4.589H49.1614V5.957C49.1614 6.077 49.1884 6.164 49.2424 6.218C49.3024 6.272 49.3984 6.299 49.5304 6.299H50.0074ZM57.5087 3.815C57.5087 4.217 57.4157 4.583 57.2297 4.913C57.0437 5.237 56.7677 5.495 56.4017 5.687C56.0417 5.879 55.6037 5.975 55.0877 5.975H54.2957V8H52.2977V1.628H55.0877C55.8677 1.628 56.4647 1.826 56.8787 2.222C57.2987 2.618 57.5087 3.149 57.5087 3.815ZM54.8627 4.4C55.2767 4.4 55.4837 4.205 55.4837 3.815C55.4837 3.425 55.2767 3.23 54.8627 3.23H54.2957V4.4H54.8627ZM60.1404 3.86C60.3444 3.566 60.5934 3.332 60.8874 3.158C61.1814 2.978 61.4874 2.888 61.8054 2.888V5.021H61.2384C60.8604 5.021 60.5814 5.087 60.4014 5.219C60.2274 5.351 60.1404 5.585 60.1404 5.921V8H58.1424V2.924H60.1404V3.86ZM64.7556 8.063C64.2456 8.063 63.7866 7.958 63.3786 7.748C62.9706 7.538 62.6496 7.238 62.4156 6.848C62.1876 6.452 62.0736 5.99 62.0736 5.462C62.0736 4.934 62.1876 4.475 62.4156 4.085C62.6496 3.689 62.9706 3.386 63.3786 3.176C63.7866 2.966 64.2456 2.861 64.7556 2.861C65.2656 2.861 65.7246 2.966 66.1326 3.176C66.5406 3.386 66.8586 3.689 67.0866 4.085C67.3206 4.475 67.4376 4.934 67.4376 5.462C67.4376 5.99 67.3206 6.452 67.0866 6.848C66.8586 7.238 66.5406 7.538 66.1326 7.748C65.7246 7.958 65.2656 8.063 64.7556 8.063ZM64.7556 6.335C64.9416 6.335 65.0976 6.263 65.2236 6.119C65.3496 5.969 65.4126 5.75 65.4126 5.462C65.4126 5.174 65.3496 4.958 65.2236 4.814C65.0976 4.664 64.9416 4.589 64.7556 4.589C64.5696 4.589 64.4136 4.664 64.2876 4.814C64.1616 4.958 64.0986 5.174 64.0986 5.462C64.0986 5.75 64.1586 5.969 64.2786 6.119C64.4046 6.263 64.5636 6.335 64.7556 6.335ZM70.0632 3.617C70.1892 3.383 70.3692 3.2 70.6032 3.068C70.8432 2.93 71.1282 2.861 71.4582 2.861C71.8542 2.861 72.2112 2.966 72.5292 3.176C72.8472 3.38 73.0962 3.68 73.2762 4.076C73.4622 4.466 73.5552 4.928 73.5552 5.462C73.5552 5.996 73.4622 6.461 73.2762 6.857C73.0962 7.247 72.8472 7.547 72.5292 7.757C72.2112 7.961 71.8542 8.063 71.4582 8.063C71.1282 8.063 70.8432 7.997 70.6032 7.865C70.3692 7.727 70.1892 7.541 70.0632 7.307V10.43H68.0652V2.924H70.0632V3.617ZM71.5302 5.462C71.5302 5.192 71.4612 4.982 71.3232 4.832C71.1852 4.682 71.0082 4.607 70.7922 4.607C70.5762 4.607 70.3992 4.682 70.2612 4.832C70.1232 4.982 70.0542 5.192 70.0542 5.462C70.0542 5.732 70.1232 5.942 70.2612 6.092C70.3992 6.242 70.5762 6.317 70.7922 6.317C71.0082 6.317 71.1852 6.242 71.3232 6.092C71.4612 5.942 71.5302 5.732 71.5302 5.462ZM79.0964 5.417C79.0964 5.555 79.0874 5.687 79.0694 5.813H75.8564C75.8864 6.251 76.0694 6.47 76.4054 6.47C76.6214 6.47 76.7774 6.371 76.8734 6.173H78.9884C78.9164 6.533 78.7634 6.857 78.5294 7.145C78.3014 7.427 78.0104 7.652 77.6564 7.82C77.3084 7.982 76.9244 8.063 76.5044 8.063C76.0004 8.063 75.5504 7.958 75.1544 7.748C74.7644 7.538 74.4584 7.238 74.2364 6.848C74.0204 6.452 73.9124 5.99 73.9124 5.462C73.9124 4.934 74.0204 4.475 74.2364 4.085C74.4584 3.689 74.7644 3.386 75.1544 3.176C75.5504 2.966 76.0004 2.861 76.5044 2.861C77.0084 2.861 77.4554 2.966 77.8454 3.176C78.2414 3.38 78.5474 3.674 78.7634 4.058C78.9854 4.442 79.0964 4.895 79.0964 5.417ZM77.0714 4.94C77.0714 4.772 77.0174 4.646 76.9094 4.562C76.8014 4.472 76.6664 4.427 76.5044 4.427C76.1504 4.427 75.9434 4.598 75.8834 4.94H77.0714ZM81.7263 3.86C81.9303 3.566 82.1793 3.332 82.4733 3.158C82.7673 2.978 83.0733 2.888 83.3913 2.888V5.021H82.8243C82.4463 5.021 82.1673 5.087 81.9873 5.219C81.8133 5.351 81.7263 5.585 81.7263 5.921V8H79.7283V2.924H81.7263V3.86ZM87.0885 6.299V8H86.3325C84.9405 8 84.2445 7.307 84.2445 5.921V4.589H83.6145V2.924H84.2445V1.7H86.2425V2.924H87.0705V4.589H86.2425V5.957C86.2425 6.077 86.2695 6.164 86.3235 6.218C86.3835 6.272 86.4795 6.299 86.6115 6.299H87.0885ZM93.5824 2.924L90.3334 10.43H88.1464L89.4244 7.748L87.3094 2.924H89.5324L90.4864 5.498L91.3774 2.924H93.5824ZM98.6735 8L97.4765 5.714H97.4675V8H95.4695V1.628H98.4395C98.9555 1.628 99.3965 1.721 99.7625 1.907C100.129 2.087 100.402 2.336 100.582 2.654C100.768 2.966 100.861 3.32 100.861 3.716C100.861 4.142 100.741 4.52 100.501 4.85C100.267 5.18 99.9275 5.417 99.4835 5.561L100.87 8H98.6735ZM97.4675 4.382H98.2595C98.4515 4.382 98.5955 4.34 98.6915 4.256C98.7875 4.166 98.8355 4.028 98.8355 3.842C98.8355 3.674 98.7845 3.542 98.6825 3.446C98.5865 3.35 98.4455 3.302 98.2595 3.302H97.4675V4.382ZM106.413 5.417C106.413 5.555 106.404 5.687 106.386 5.813H103.173C103.203 6.251 103.386 6.47 103.722 6.47C103.938 6.47 104.094 6.371 104.19 6.173H106.305C106.233 6.533 106.08 6.857 105.846 7.145C105.618 7.427 105.327 7.652 104.973 7.82C104.625 7.982 104.241 8.063 103.821 8.063C103.317 8.063 102.867 7.958 102.471 7.748C102.081 7.538 101.775 7.238 101.553 6.848C101.337 6.452 101.229 5.99 101.229 5.462C101.229 4.934 101.337 4.475 101.553 4.085C101.775 3.689 102.081 3.386 102.471 3.176C102.867 2.966 103.317 2.861 103.821 2.861C104.325 2.861 104.772 2.966 105.162 3.176C105.558 3.38 105.864 3.674 106.08 4.058C106.302 4.442 106.413 4.895 106.413 5.417ZM104.388 4.94C104.388 4.772 104.334 4.646 104.226 4.562C104.118 4.472 103.983 4.427 103.821 4.427C103.467 4.427 103.26 4.598 103.2 4.94H104.388ZM109.043 3.617C109.169 3.383 109.349 3.2 109.583 3.068C109.823 2.93 110.108 2.861 110.438 2.861C110.834 2.861 111.191 2.966 111.509 3.176C111.827 3.38 112.076 3.68 112.256 4.076C112.442 4.466 112.535 4.928 112.535 5.462C112.535 5.996 112.442 6.461 112.256 6.857C112.076 7.247 111.827 7.547 111.509 7.757C111.191 7.961 110.834 8.063 110.438 8.063C110.108 8.063 109.823 7.997 109.583 7.865C109.349 7.727 109.169 7.541 109.043 7.307V10.43H107.045V2.924H109.043V3.617ZM110.51 5.462C110.51 5.192 110.441 4.982 110.303 4.832C110.165 4.682 109.988 4.607 109.772 4.607C109.556 4.607 109.379 4.682 109.241 4.832C109.103 4.982 109.034 5.192 109.034 5.462C109.034 5.732 109.103 5.942 109.241 6.092C109.379 6.242 109.556 6.317 109.772 6.317C109.988 6.317 110.165 6.242 110.303 6.092C110.441 5.942 110.51 5.732 110.51 5.462ZM115.574 8.063C115.064 8.063 114.605 7.958 114.197 7.748C113.789 7.538 113.468 7.238 113.234 6.848C113.006 6.452 112.892 5.99 112.892 5.462C112.892 4.934 113.006 4.475 113.234 4.085C113.468 3.689 113.789 3.386 114.197 3.176C114.605 2.966 115.064 2.861 115.574 2.861C116.084 2.861 116.543 2.966 116.951 3.176C117.359 3.386 117.677 3.689 117.905 4.085C118.139 4.475 118.256 4.934 118.256 5.462C118.256 5.99 118.139 6.452 117.905 6.848C117.677 7.238 117.359 7.538 116.951 7.748C116.543 7.958 116.084 8.063 115.574 8.063ZM115.574 6.335C115.76 6.335 115.916 6.263 116.042 6.119C116.168 5.969 116.231 5.75 116.231 5.462C116.231 5.174 116.168 4.958 116.042 4.814C115.916 4.664 115.76 4.589 115.574 4.589C115.388 4.589 115.232 4.664 115.106 4.814C114.98 4.958 114.917 5.174 114.917 5.462C114.917 5.75 114.977 5.969 115.097 6.119C115.223 6.263 115.382 6.335 115.574 6.335ZM120.882 3.86C121.086 3.566 121.335 3.332 121.629 3.158C121.923 2.978 122.229 2.888 122.547 2.888V5.021H121.98C121.602 5.021 121.323 5.087 121.143 5.219C120.969 5.351 120.882 5.585 120.882 5.921V8H118.884V2.924H120.882V3.86ZM126.244 6.299V8H125.488C124.096 8 123.4 7.307 123.4 5.921V4.589H122.77V2.924H123.4V1.7H125.398V2.924H126.226V4.589H125.398V5.957C125.398 6.077 125.425 6.164 125.479 6.218C125.539 6.272 125.635 6.299 125.767 6.299H126.244ZM130.262 9.296H128.264V0.547999H130.262V9.296ZM137.63 3.815C137.63 4.217 137.537 4.583 137.351 4.913C137.165 5.237 136.889 5.495 136.523 5.687C136.163 5.879 135.725 5.975 135.209 5.975H134.417V8H132.419V1.628H135.209C135.989 1.628 136.586 1.826 137 2.222C137.42 2.618 137.63 3.149 137.63 3.815ZM134.984 4.4C135.398 4.4 135.605 4.205 135.605 3.815C135.605 3.425 135.398 3.23 134.984 3.23H134.417V4.4H134.984ZM137.993 5.462C137.993 4.928 138.083 4.466 138.263 4.076C138.449 3.68 138.701 3.38 139.019 3.176C139.337 2.966 139.694 2.861 140.09 2.861C140.42 2.861 140.705 2.93 140.945 3.068C141.185 3.2 141.368 3.383 141.494 3.617V2.924H143.483V8H141.494V7.307C141.368 7.541 141.185 7.727 140.945 7.865C140.705 7.997 140.42 8.063 140.09 8.063C139.694 8.063 139.337 7.961 139.019 7.757C138.701 7.547 138.449 7.247 138.263 6.857C138.083 6.461 137.993 5.996 137.993 5.462ZM141.494 5.462C141.494 5.192 141.425 4.982 141.287 4.832C141.149 4.682 140.972 4.607 140.756 4.607C140.54 4.607 140.363 4.682 140.225 4.832C140.087 4.982 140.018 5.192 140.018 5.462C140.018 5.732 140.087 5.942 140.225 6.092C140.363 6.242 140.54 6.317 140.756 6.317C140.972 6.317 141.149 6.242 141.287 6.092C141.425 5.942 141.494 5.732 141.494 5.462ZM146.208 2.861C146.538 2.861 146.823 2.93 147.063 3.068C147.303 3.2 147.486 3.383 147.612 3.617V2.924H149.601V7.91C149.601 8.384 149.514 8.816 149.34 9.206C149.166 9.596 148.884 9.908 148.494 10.142C148.11 10.376 147.615 10.493 147.009 10.493C146.193 10.493 145.545 10.301 145.065 9.917C144.591 9.539 144.321 9.023 144.255 8.369H146.217C146.271 8.633 146.487 8.765 146.865 8.765C147.099 8.765 147.282 8.705 147.414 8.585C147.546 8.465 147.612 8.24 147.612 7.91V7.307C147.486 7.541 147.303 7.727 147.063 7.865C146.823 7.997 146.538 8.063 146.208 8.063C145.812 8.063 145.455 7.961 145.137 7.757C144.819 7.547 144.567 7.247 144.381 6.857C144.201 6.461 144.111 5.996 144.111 5.462C144.111 4.928 144.201 4.466 144.381 4.076C144.567 3.68 144.819 3.38 145.137 3.176C145.455 2.966 145.812 2.861 146.208 2.861ZM147.612 5.462C147.612 5.192 147.543 4.982 147.405 4.832C147.267 4.682 147.09 4.607 146.874 4.607C146.658 4.607 146.481 4.682 146.343 4.832C146.205 4.982 146.136 5.192 146.136 5.462C146.136 5.732 146.205 5.942 146.343 6.092C146.481 6.242 146.658 6.317 146.874 6.317C147.09 6.317 147.267 6.242 147.405 6.092C147.543 5.942 147.612 5.732 147.612 5.462ZM155.412 5.417C155.412 5.555 155.403 5.687 155.385 5.813H152.172C152.202 6.251 152.385 6.47 152.721 6.47C152.937 6.47 153.093 6.371 153.189 6.173H155.304C155.232 6.533 155.079 6.857 154.845 7.145C154.617 7.427 154.326 7.652 153.972 7.82C153.624 7.982 153.24 8.063 152.82 8.063C152.316 8.063 151.866 7.958 151.47 7.748C151.08 7.538 150.774 7.238 150.552 6.848C150.336 6.452 150.228 5.99 150.228 5.462C150.228 4.934 150.336 4.475 150.552 4.085C150.774 3.689 151.08 3.386 151.47 3.176C151.866 2.966 152.316 2.861 152.82 2.861C153.324 2.861 153.771 2.966 154.161 3.176C154.557 3.38 154.863 3.674 155.079 4.058C155.301 4.442 155.412 4.895 155.412 5.417ZM153.387 4.94C153.387 4.772 153.333 4.646 153.225 4.562C153.117 4.472 152.982 4.427 152.82 4.427C152.466 4.427 152.259 4.598 152.199 4.94H153.387ZM157.213 3.293V1.421H160.264V8H158.167V3.293H157.213Z" fill="#090E24"/>
<path d="M165.109 8.063C164.599 8.063 164.14 7.958 163.732 7.748C163.324 7.538 163.003 7.238 162.769 6.848C162.541 6.452 162.427 5.99 162.427 5.462C162.427 4.934 162.541 4.475 162.769 4.085C163.003 3.689 163.324 3.386 163.732 3.176C164.14 2.966 164.599 2.861 165.109 2.861C165.619 2.861 166.078 2.966 166.486 3.176C166.894 3.386 167.212 3.689 167.44 4.085C167.674 4.475 167.791 4.934 167.791 5.462C167.791 5.99 167.674 6.452 167.44 6.848C167.212 7.238 166.894 7.538 166.486 7.748C166.078 7.958 165.619 8.063 165.109 8.063ZM165.109 6.335C165.295 6.335 165.451 6.263 165.577 6.119C165.703 5.969 165.766 5.75 165.766 5.462C165.766 5.174 165.703 4.958 165.577 4.814C165.451 4.664 165.295 4.589 165.109 4.589C164.923 4.589 164.767 4.664 164.641 4.814C164.515 4.958 164.452 5.174 164.452 5.462C164.452 5.75 164.512 5.969 164.632 6.119C164.758 6.263 164.917 6.335 165.109 6.335ZM171.344 2.564C171.236 2.552 171.161 2.546 171.119 2.546C170.969 2.546 170.855 2.576 170.777 2.636C170.699 2.69 170.645 2.786 170.615 2.924H171.344V4.589H170.597V8H168.599V4.589H168.059V2.924H168.599C168.611 2.264 168.818 1.754 169.22 1.394C169.628 1.028 170.198 0.845 170.93 0.845C171.014 0.845 171.152 0.851 171.344 0.863V2.564ZM173.213 6.407C174.017 5.807 174.653 5.264 175.121 4.778C175.589 4.286 175.823 3.827 175.823 3.401C175.823 3.257 175.79 3.146 175.724 3.068C175.664 2.99 175.583 2.951 175.481 2.951C175.361 2.951 175.265 3.014 175.193 3.14C175.127 3.26 175.103 3.446 175.121 3.698H173.186C173.204 3.14 173.324 2.681 173.546 2.321C173.774 1.961 174.068 1.697 174.428 1.529C174.788 1.361 175.184 1.277 175.616 1.277C176.384 1.277 176.945 1.463 177.299 1.835C177.659 2.201 177.839 2.672 177.839 3.248C177.839 3.854 177.644 4.424 177.254 4.958C176.87 5.486 176.387 5.933 175.805 6.299H177.866V7.91H173.213V6.407ZM183.315 3.176H180.705V3.932C180.819 3.83 180.966 3.749 181.146 3.689C181.332 3.629 181.539 3.599 181.767 3.599C182.175 3.599 182.52 3.695 182.802 3.887C183.084 4.079 183.294 4.337 183.432 4.661C183.57 4.979 183.639 5.333 183.639 5.723C183.639 6.443 183.435 7.004 183.027 7.406C182.625 7.802 182.07 8 181.362 8C180.846 8 180.399 7.91 180.021 7.73C179.649 7.55 179.364 7.301 179.166 6.983C178.974 6.665 178.884 6.302 178.896 5.894H180.84C180.84 5.99 180.873 6.08 180.939 6.164C181.005 6.248 181.113 6.29 181.263 6.29C181.413 6.29 181.524 6.236 181.596 6.128C181.668 6.02 181.704 5.873 181.704 5.687C181.704 5.513 181.662 5.381 181.578 5.291C181.5 5.201 181.386 5.156 181.236 5.156C181.11 5.156 181.014 5.186 180.948 5.246C180.882 5.306 180.849 5.375 180.849 5.453H178.905V1.421H183.315V3.176Z" fill="#626E99"/>
</svg>
